<svg width="34" height="33" viewBox="0 0 34 33" fill="none" xmlns="http://www.w3.org/2000/svg">
<path d="M8.49992 9.625H15.5833C15.959 9.625 16.3193 9.76987 16.585 10.0277C16.8507 10.2856 16.9999 10.6353 16.9999 11C16.9999 11.3647 16.8507 11.7144 16.585 11.9723C16.3193 12.2301 15.959 12.375 15.5833 12.375H8.49992C8.1242 12.375 7.76386 12.2301 7.49818 11.9723C7.23251 11.7144 7.08325 11.3647 7.08325 11C7.08325 10.6353 7.23251 10.2856 7.49818 10.0277C7.76386 9.76987 8.1242 9.625 8.49992 9.625ZM18.4166 20.625H25.4999C25.8756 20.625 26.236 20.7699 26.5017 21.0277C26.7673 21.2856 26.9166 21.6353 26.9166 22C26.9166 22.3647 26.7673 22.7144 26.5017 22.9723C26.236 23.2301 25.8756 23.375 25.4999 23.375H18.4166C18.0409 23.375 17.6805 23.2301 17.4149 22.9723C17.1492 22.7144 16.9999 22.3647 16.9999 22C16.9999 21.6353 17.1492 21.2856 17.4149 21.0277C17.6805 20.7699 18.0409 20.625 18.4166 20.625ZM8.49992 15.125H25.4999C25.8756 15.125 26.236 15.2699 26.5017 15.5277C26.7673 15.7856 26.9166 16.1353 26.9166 16.5C26.9166 16.8647 26.7673 17.2144 26.5017 17.4723C26.236 17.7301 25.8756 17.875 25.4999 17.875H8.49992C8.1242 17.875 7.76386 17.7301 7.49818 17.4723C7.23251 17.2144 7.08325 16.8647 7.08325 16.5C7.08325 16.1353 7.23251 15.7856 7.49818 15.5277C7.76386 15.2699 8.1242 15.125 8.49992 15.125Z" fill="#F8F8F8"/>
</svg>
