<svg width="150" height="289" viewBox="0 0 150 289" fill="none" xmlns="http://www.w3.org/2000/svg">
    <!-- Outer shape filled with white -->
    <path d="M55.0365 1.01475L1 287.001H38.8256C55.9421 287.001 77.5517 289.249 82.6552 287.001C92.8621 282.503 103.822 267.019 113.276 251.252C128.586 225.718 131.806 192.776 138.793 154.221C145.941 114.779 149 92.9739 149 52.0837C149 29.786 149 1.04793 123.483 1.01475C97.9655 0.981567 92.8621 1.01475 92.8621 1.01475H55.0365Z" fill="white" stroke="black"/>

    <!-- Center part not filled -->
    <path d="M38.8256 287.001C55.9421 287.001 77.5517 289.249 82.6552 287.001C92.8621 282.503 103.822 267.019 113.276 251.252C128.586 225.718 131.806 192.776 138.793 154.221C145.941 114.779 149 92.9739 149 52.0837C149 29.786 149 1.04793 123.483 1.01475C97.9655 0.981567 92.8621 1.01475 92.8621 1.01475H55.0365" fill="none" stroke="black"/>
</svg>