<svg width="343" height="29" viewBox="0 0 343 29" fill="none" xmlns="http://www.w3.org/2000/svg">
<path d="M129 28L130.081 0H133.943L132.399 20.713H132.708L138.578 0H142.44L133.429 28H129Z" fill="white"/>
<path d="M301 28L302.081 0H305.943L304.399 20.713H304.708L310.578 0H314.44L305.429 28H301Z" fill="white"/>
<path d="M0 28L4.87138 0H8.15113L6.36656 10.911L11.5756 0H15L8.68167 13.3523L10.2251 28H6.80064L5.49839 16.0427L3.32797 28H0Z" fill="white"/>
<path d="M180 28L184.871 0H188.151L186.367 10.911L191.576 0H195L188.682 13.3523L190.225 28H186.801L185.498 16.0427L183.328 28H180Z" fill="white"/>
<path d="M42.3421 4.55743C42.3421 5.62065 42.1038 7.31214 42.1038 7.31214H45.4878C45.4878 7.31214 45.7471 5.63713 45.7261 4.55743C45.7132 3.89457 45.742 3.50905 45.5831 2.86594C45.3767 2.03078 45.2583 1.46343 44.6298 0.884477C44.0235 0.325915 43.4804 0.266568 42.6757 0.111224C41.8529 -0.0476092 41.3575 -0.0261528 40.5309 0.111224C39.7584 0.239625 39.3042 0.345616 38.6245 0.739492C37.7902 1.22293 37.395 1.6693 36.861 2.47931C36.2653 3.38286 36.2109 4.0466 35.9077 5.08904C35.6216 6.07276 35.4855 6.63613 35.3358 7.65044C35.1701 8.77285 34.9915 9.42597 35.1452 10.5501C35.2487 11.3077 35.3348 11.7496 35.6694 12.4349C36.1146 13.3467 36.6415 13.6837 37.3376 14.4164C38.1055 15.2247 38.7674 15.4313 39.4347 16.3495C39.8573 16.9311 39.9761 17.3713 40.0543 18.0893C40.1137 18.6347 40.0207 18.9458 39.959 19.4909C39.8574 20.3881 39.7637 20.8908 39.53 21.7623C39.2968 22.6321 39.2917 23.2605 38.7674 23.9371C38.5249 24.2501 38.2898 24.3694 37.9095 24.4687C37.5851 24.5534 37.3573 24.6077 37.0516 24.4687C36.6465 24.2845 36.4948 23.9478 36.432 23.5021C36.3367 22.8255 36.3852 22.3518 36.432 21.6173C36.4902 20.7037 36.7657 19.2976 36.7657 19.2976H33.334C33.334 19.2976 33.1621 20.4729 33.0957 21.2307C32.9887 22.4532 33.0004 24.372 33.0004 24.372C33.0004 24.372 33.1421 26.3152 33.9536 27.0784C34.5342 27.6244 35.037 27.7372 35.8124 27.9C36.5779 28.0607 37.0391 28.0028 37.8142 27.9C38.4991 27.8091 38.8991 27.75 39.53 27.465C40.2376 27.1454 40.6127 26.8705 41.1505 26.3052C41.9024 25.5149 42.0817 24.8595 42.4851 23.8404C42.9424 22.6849 43.0153 21.97 43.2477 20.7474C43.4434 19.7174 43.6204 19.1383 43.6289 18.0893L43.6294 18.0348C43.6357 17.2715 43.6396 16.8102 43.4383 16.0596C43.2568 15.3828 43.092 15.0099 42.7234 14.4164C42.1973 13.5694 41.7308 13.2052 40.9599 12.5799C39.7683 11.6134 38.8043 10.9972 38.6245 9.48691C38.5821 9.1309 38.5964 8.92614 38.6245 8.56868C38.6635 8.07055 38.7645 7.80181 38.8628 7.31214C39.0797 6.23087 39.1487 5.66898 39.4824 4.55743C39.652 3.9922 39.7017 3.58207 40.1496 3.20424C40.5164 2.89487 40.8203 2.70747 41.2935 2.76928C41.6486 2.81567 41.8666 2.9323 42.1038 3.20424C42.4545 3.60634 42.3421 4.02061 42.3421 4.55743Z" fill="white"/>
<path d="M91.3421 4.55743C91.3421 5.62065 91.1038 7.31214 91.1038 7.31214H94.4878C94.4878 7.31214 94.7471 5.63713 94.7261 4.55743C94.7132 3.89457 94.742 3.50905 94.5831 2.86594C94.3767 2.03078 94.2583 1.46343 93.6298 0.884477C93.0235 0.325915 92.4804 0.266568 91.6757 0.111224C90.8529 -0.0476092 90.3575 -0.0261528 89.5309 0.111224C88.7584 0.239625 88.3042 0.345616 87.6245 0.739492C86.7902 1.22293 86.395 1.6693 85.861 2.47931C85.2653 3.38286 85.2109 4.0466 84.9077 5.08904C84.6216 6.07276 84.4855 6.63613 84.3358 7.65044C84.1701 8.77285 83.9915 9.42597 84.1452 10.5501C84.2487 11.3077 84.3348 11.7496 84.6694 12.4349C85.1146 13.3467 85.6415 13.6837 86.3376 14.4164C87.1055 15.2247 87.7674 15.4313 88.4347 16.3495C88.8573 16.9311 88.9761 17.3713 89.0543 18.0893C89.1137 18.6347 89.0207 18.9458 88.959 19.4909C88.8574 20.3881 88.7637 20.8908 88.53 21.7623C88.2968 22.6321 88.2917 23.2605 87.7674 23.9371C87.5249 24.2501 87.2898 24.3694 86.9095 24.4687C86.5851 24.5534 86.3573 24.6077 86.0516 24.4687C85.6465 24.2845 85.4948 23.9478 85.432 23.5021C85.3367 22.8255 85.3852 22.3518 85.432 21.6173C85.4902 20.7037 85.7657 19.2976 85.7657 19.2976H82.334C82.334 19.2976 82.1621 20.4729 82.0957 21.2307C81.9887 22.4532 82.0004 24.372 82.0004 24.372C82.0004 24.372 82.1421 26.3152 82.9536 27.0784C83.5342 27.6244 84.037 27.7372 84.8124 27.9C85.5779 28.0607 86.0391 28.0028 86.8142 27.9C87.4991 27.8091 87.8991 27.75 88.53 27.465C89.2376 27.1454 89.6127 26.8705 90.1505 26.3052C90.9024 25.5149 91.0817 24.8595 91.4851 23.8404C91.9424 22.6849 92.0153 21.97 92.2477 20.7474C92.4434 19.7174 92.6204 19.1383 92.6289 18.0893L92.6294 18.0348C92.6357 17.2715 92.6396 16.8102 92.4383 16.0596C92.2568 15.3828 92.092 15.0099 91.7234 14.4164C91.1973 13.5694 90.7308 13.2052 89.9599 12.5799C88.7683 11.6134 87.8043 10.9972 87.6245 9.48691C87.5821 9.1309 87.5964 8.92614 87.6245 8.56868C87.6635 8.07055 87.7645 7.80181 87.8628 7.31214C88.0797 6.23087 88.1487 5.66898 88.4824 4.55743C88.652 3.9922 88.7017 3.58207 89.1496 3.20424C89.5164 2.89487 89.8203 2.70747 90.2935 2.76928C90.6486 2.81567 90.8666 2.9323 91.1038 3.20424C91.4545 3.60634 91.3421 4.02061 91.3421 4.55743Z" fill="white"/>
<path d="M271.342 4.55743C271.342 5.62065 271.104 7.31214 271.104 7.31214H274.488C274.488 7.31214 274.747 5.63713 274.726 4.55743C274.713 3.89457 274.742 3.50905 274.583 2.86594C274.377 2.03078 274.258 1.46343 273.63 0.884477C273.024 0.325915 272.48 0.266568 271.676 0.111224C270.853 -0.0476092 270.357 -0.0261528 269.531 0.111224C268.758 0.239625 268.304 0.345616 267.624 0.739492C266.79 1.22293 266.395 1.6693 265.861 2.47931C265.265 3.38286 265.211 4.0466 264.908 5.08904C264.622 6.07276 264.486 6.63613 264.336 7.65044C264.17 8.77285 263.991 9.42597 264.145 10.5501C264.249 11.3077 264.335 11.7496 264.669 12.4349C265.115 13.3467 265.641 13.6837 266.338 14.4164C267.105 15.2247 267.767 15.4313 268.435 16.3495C268.857 16.9311 268.976 17.3713 269.054 18.0893C269.114 18.6347 269.021 18.9458 268.959 19.4909C268.857 20.3881 268.764 20.8908 268.53 21.7623C268.297 22.6321 268.292 23.2605 267.767 23.9371C267.525 24.2501 267.29 24.3694 266.91 24.4687C266.585 24.5534 266.357 24.6077 266.052 24.4687C265.646 24.2845 265.495 23.9478 265.432 23.5021C265.337 22.8255 265.385 22.3518 265.432 21.6173C265.49 20.7037 265.766 19.2976 265.766 19.2976H262.334C262.334 19.2976 262.162 20.4729 262.096 21.2307C261.989 22.4532 262 24.372 262 24.372C262 24.372 262.142 26.3152 262.954 27.0784C263.534 27.6244 264.037 27.7372 264.812 27.9C265.578 28.0607 266.039 28.0028 266.814 27.9C267.499 27.8091 267.899 27.75 268.53 27.465C269.238 27.1454 269.613 26.8705 270.151 26.3052C270.902 25.5149 271.082 24.8595 271.485 23.8404C271.942 22.6849 272.015 21.97 272.248 20.7474C272.443 19.7174 272.62 19.1383 272.629 18.0893L272.629 18.0348C272.636 17.2715 272.64 16.8102 272.438 16.0596C272.257 15.3828 272.092 15.0099 271.723 14.4164C271.197 13.5694 270.731 13.2052 269.96 12.5799C268.768 11.6134 267.804 10.9972 267.624 9.48691C267.582 9.1309 267.596 8.92614 267.624 8.56868C267.664 8.07055 267.765 7.80181 267.863 7.31214C268.08 6.23087 268.149 5.66898 268.482 4.55743C268.652 3.9922 268.702 3.58207 269.15 3.20424C269.516 2.89487 269.82 2.70747 270.294 2.76928C270.649 2.81567 270.867 2.9323 271.104 3.20424C271.455 3.60634 271.342 4.02061 271.342 4.55743Z" fill="white"/>
<path d="M31.2941 0L26 28H29.7059L35 0H31.2941Z" fill="white"/>
<path d="M178.294 0L173 28H176.706L182 0H178.294Z" fill="white"/>
<path d="M207.294 0L202 28H205.706L208.119 15.2354H212L209.5 28H213L218 0H214.5L212.5 12H208.731L211 0H207.294Z" fill="white"/>
<path d="M316.294 0L311 28H314.706L320 0H316.294Z" fill="white"/>
<path d="M168.294 0L163 28H166.706H170.5L172 24.5H167.5L172 0H168.294Z" fill="white"/>
<path d="M235.294 0L230 28H233.706H237.5L239 24.5H234.5L239 0H235.294Z" fill="white"/>
<path d="M71.2941 0L66 28H69.7059L72.7842 11.7189L74.5 28H78L83 0H79.5L76 17L75 0H71.2941Z" fill="white"/>
<path d="M108.294 0L103 28H106.706L109.784 11.7189L111.5 28H115L120 0H116.5L113 17L112 0H108.294Z" fill="white"/>
<path d="M61.2941 0L56 28H59.7059H64.3382L65 24.7159H60.3268L62 15.5H66L66.5 12H62.5L64.3382 3.5H68L69 0H65H61.2941Z" fill="white"/>
<path d="M144.294 0L139 28H142.706H147.338L148 24.7159H143.327L145 15.5H149L149.5 12H145.5L147.338 3.5H151L152 0H148H144.294Z" fill="white"/>
<path d="M197.294 0L192 28H195.706H200.338L201 24.7159H196.327L198 15.5H202L202.5 12H198.5L200.338 3.5H204L205 0H201H197.294Z" fill="white"/>
<path d="M278.294 0L273 28H276.706H281.338L282 24.7159H277.327L279 15.5H283L283.5 12H279.5L281.338 3.5H285L286 0H282H278.294Z" fill="white"/>
<path d="M335.294 0L330 28H333.706H338.338L339 24.7159H334.327L336 15.5H340L340.5 12H336.5L338.338 3.5H342L343 0H339H335.294Z" fill="white"/>
<path d="M98.2941 0L93 28H96.7059H101.338L102 24.7159H97.3268L99 15.5H103L103.5 12H99.5L101.338 3.5H105L106 0H102H98.2941Z" fill="white"/>
<path d="M56 0H52.2941H48.5L48 3.79376H51.5768L47 28H50.7059L55.2827 3.79376H58.1823L59 0H56Z" fill="white"/>
<path d="M155.13 24.5306H155.963C155.963 24.5306 156.478 23.9207 156.748 23.4885C157.294 22.6137 157.406 22.0161 157.729 21.0367C158.13 19.8192 158.513 17.8492 158.513 17.8492C158.874 16.2673 159.058 15.3756 159.347 13.7791C159.606 12.3478 159.935 10.1013 159.935 10.1013C159.935 10.1013 160.168 8.63989 160.279 7.69843C160.373 6.89595 160.468 6.44678 160.475 5.63885C160.478 5.17885 160.426 4.46194 160.426 4.46194C160.426 4.46194 160.181 3.38386 159.641 3.18771C159.188 3.10279 158.151 3.18771 157.484 3.18771H157.287L153.266 24.5674L155.13 24.5306ZM149 28L154.296 0.00026812L157.119 0.000268111C158.037 0.000268111 161.112 -0.000242 161.21 0.000145023C161.456 0.00111258 162.221 0.0263214 163.025 1.37321C163.258 1.76488 163.417 3.38375 163.417 3.38375L163.466 6.08082C163.466 6.08082 163.398 8.20674 163.27 9.56249C163.106 11.2962 162.901 12.2553 162.632 13.976C162.381 15.5873 162.249 16.4928 161.946 18.0951C161.717 19.3056 161.639 19.9978 161.308 21.1845C161.065 22.0596 160.958 22.5686 160.573 23.3912C160.369 23.8258 160.225 24.0547 159.984 24.47C159.574 25.178 159.366 25.5949 158.857 26.2354C158.263 26.9821 157.287 27.9517 157.119 27.9517C156.95 27.9517 149 28 149 28Z" fill="white"/>
<path d="M222.126 24.5304C222.451 24.5325 222.959 24.5304 222.959 24.5304C222.959 24.5304 223.595 23.7263 223.744 23.4884C224.29 22.6136 224.402 22.0159 224.725 21.0365C225.126 19.819 225.509 17.8491 225.509 17.8491C225.87 16.2671 226.054 15.3755 226.343 13.7789C226.602 12.3477 226.931 10.1011 226.931 10.1011C226.931 10.1011 227.164 8.63975 227.275 7.69828C227.369 6.89581 227.464 6.44663 227.471 5.6387C227.474 5.17871 227.422 4.4618 227.422 4.4618C227.422 4.4618 227.108 3.53337 226.637 3.18757C225.896 2.64364 225.023 2.64125 224.283 3.18757C223.803 3.54233 223.594 4.00238 223.5 4.5C223.5 4.5 221.816 12.6085 221 17.8491C220.811 19.0639 220.538 20.9632 220.538 20.9632L220.091 23.3911C220.091 23.3911 220.155 24.1937 220.5 24.5C220.652 24.635 221.491 24.5264 222.126 24.5304ZM218.63 27.2255C217.85 26.3767 218 24.4999 218 24.4999C218 24.4999 217.963 22.9756 217.996 21.9999C218.119 18.4388 220.601 6.48087 220.996 4.99986C221.391 3.51884 222.496 1.37306 222.496 1.37306C222.496 1.37306 223.197 0.000123088 224.115 0.000123088C225.033 0.000123088 228.206 0 228.206 0C228.452 0.000967554 229.217 0.0261763 230.021 1.37306C230.254 1.76473 230.413 3.38361 230.413 3.38361L230.462 6.08068C230.462 6.08068 230.395 8.20659 230.266 9.56235C230.102 11.296 229.897 12.2552 229.628 13.9758C229.377 15.5872 229.245 16.4926 228.942 18.095C228.713 19.3054 228.635 19.9976 228.304 21.1844C228.061 22.0595 227.954 22.5684 227.569 23.3911C227.365 23.8257 227.221 24.0546 226.98 24.4699C226.57 25.1779 226.362 25.5948 225.853 26.2353C225.259 26.982 224.283 27.9516 224.115 27.9516C224.115 27.9516 220.092 28.8164 218.63 27.2255Z" fill="white"/>
<path d="M323.5 24.5C322.961 24.7103 322.862 24.6461 322.5 24.5C321.852 24.2385 321.716 22.8915 321.716 22.8915L322.5 17.5L325 4C325.094 3.50238 325.356 2.78454 326 2.5C326.736 2.17461 327.086 2.08579 327.5 2.5C328 3 327.838 7.19877 327.838 7.19877H331C331 7.19877 331.234 2.39167 331 2C330.197 0.653113 329.567 0.00120593 329.322 0.000238374L325.301 0C324.383 0 324 1.00048 324 1.00048C324 1.00048 322.408 3.01932 322.014 4.50034C321.619 5.98136 319.136 17.9393 319.014 21.5003C318.981 22.4761 319.018 24.0003 319.018 24.0003C319.018 24.0003 318.867 25.8772 319.647 26.7259C321.109 28.3169 325.133 27.4521 325.133 27.4521C325.301 27.4521 326.277 26.4825 326.87 25.7357C327.086 25.3244 328.53 23.3705 328.5 22.8915C328.414 21.5 328.5 19.5 328.5 19.5H325.5C325.5 19.5 325.308 22.1141 324.762 22.9889C324.613 23.2268 324.216 24.2207 323.5 24.5Z" fill="white"/>
<path d="M246.13 24.5306H246.963C246.963 24.5306 247.478 23.9207 247.748 23.4885C248.294 22.6137 248.406 22.0161 248.729 21.0367C249.13 19.8192 249.513 17.8492 249.513 17.8492C249.874 16.2673 250.058 15.3756 250.347 13.7791C250.606 12.3478 250.935 10.1013 250.935 10.1013C250.935 10.1013 251.168 8.63989 251.279 7.69843C251.373 6.89595 251.468 6.44678 251.475 5.63885C251.478 5.17885 251.426 4.46194 251.426 4.46194C251.426 4.46194 251.181 3.38386 250.641 3.18771C250.188 3.10279 249.151 3.18771 248.484 3.18771H248.287L244.266 24.5674L246.13 24.5306ZM240 28L245.296 0.00026812L248.119 0.000268111C249.037 0.000268111 252.112 -0.000242 252.21 0.000145023C252.456 0.00111258 253.221 0.0263214 254.025 1.37321C254.258 1.76488 254.417 3.38375 254.417 3.38375L254.466 6.08082C254.466 6.08082 254.398 8.20674 254.27 9.56249C254.106 11.2962 253.901 12.2553 253.632 13.976C253.381 15.5873 253.249 16.4928 252.946 18.0951C252.717 19.3056 252.639 19.9978 252.308 21.1845C252.065 22.0596 251.958 22.5686 251.573 23.3912C251.369 23.8258 251.225 24.0547 250.984 24.47C250.574 25.178 250.366 25.5949 249.857 26.2354C249.263 26.9821 248.287 27.9517 248.119 27.9517C247.95 27.9517 240 28 240 28Z" fill="white"/>
<path d="M284 28L288.5 0H291.014C292.866 0 295.311 0.252604 296.5 1C297.689 1.73828 297.929 2.70573 298.5 4C299.071 5.29427 297.5 10 297.5 10C297.5 10 296.071 12.724 295.5 14C294.929 15.276 294.748 14.6151 295.89 15.4219C294.108 14.9715 294.337 15 292.5 15C291.461 15 289.84 15 289.84 15L290.38 12C291.646 12 292.867 12.0691 293 12C294.163 11.3977 294.127 10.2555 294.5 9C295.112 6.94118 295.28 3.95573 294.5 3.5C293.72 3.03516 293.282 3 292 3L287.5 28H284ZM295.89 15.4219C295.542 20.3339 295 28 295 28L291.5 28C291.5 28 292.109 20.0768 292.5 15C293 14.5 293.5 13.5 293.5 13.5C293.5 13.5 295.246 15.2589 295.89 15.4219Z" fill="white"/>
<path d="M13 28L17.5 0H20.0136C21.8665 0 24.3111 0.252604 25.5 1C26.6889 1.73828 26.9287 2.70573 27.5 4C28.0713 5.29427 26.5 10 26.5 10C26.5 10 25.0713 12.724 24.5 14C23.9287 15.276 23.7477 14.6151 24.8895 15.4219C23.1081 14.9715 23.3374 15 21.5 15C20.4612 15 18.84 15 18.84 15L19.38 12C20.6461 12 21.8665 12.0691 22 12C23.1632 11.3977 23.1267 10.2555 23.5 9C24.1121 6.94118 24.2797 3.95573 23.5 3.5C22.7203 3.03516 22.2816 3 21 3L16.5 28H13ZM24.8895 15.4219C24.5421 20.3339 24 28 24 28L20.5 28C20.5 28 21.1095 20.0768 21.5 15C22 14.5 22.5 13.5 22.5 13.5C22.5 13.5 24.2459 15.2589 24.8895 15.4219Z" fill="white"/>
</svg>
