<svg width="566" height="337" viewBox="0 0 566 337" fill="none" xmlns="http://www.w3.org/2000/svg">
<path d="M320.5 281L331.04 0H368.684L353.626 207.87H356.638L413.856 0H451.5L363.665 281H320.5Z" fill="white"/>
<path d="M166 281L216.5 0H250.5L232 109.5L286 0H321.5L256 134L272 281H236.5L223 161L200.5 281H166Z" fill="white"/>
<path d="M529.859 45.737C529.859 56.4072 527.35 73.3826 527.35 73.3826H562.978C562.978 73.3826 565.709 56.5726 565.487 45.737C565.351 39.0848 565.655 35.2158 563.982 28.7617C561.809 20.3804 560.562 14.6866 553.946 8.87636C547.562 3.27079 541.844 2.6752 533.371 1.11622C524.708 -0.477792 519.492 -0.262462 510.79 1.11622C502.656 2.4048 497.874 3.4685 490.718 7.42133C481.934 12.273 477.773 16.7526 472.151 24.8817C465.879 33.9494 465.306 40.6105 462.114 51.0721C459.102 60.9445 457.669 66.5983 456.093 76.7776C454.348 88.0418 452.467 94.5964 454.085 105.878C455.176 113.481 456.082 117.915 459.605 124.794C464.292 133.944 469.84 137.325 477.169 144.679C485.253 152.791 492.223 154.864 499.248 164.079C503.698 169.916 504.948 174.334 505.772 181.54C506.397 187.012 505.418 190.135 504.768 195.605C503.699 204.61 502.712 209.654 500.252 218.4C497.796 227.129 497.743 233.436 492.223 240.226C489.669 243.367 487.194 244.564 483.19 245.561C479.774 246.411 477.377 246.955 474.158 245.561C469.892 243.712 468.295 240.333 467.634 235.861C466.631 229.07 467.141 224.317 467.634 216.945C468.247 207.777 471.147 193.665 471.147 193.665H435.017C435.017 193.665 433.206 205.46 432.508 213.065C431.381 225.334 431.504 244.591 431.504 244.591C431.504 244.591 432.996 264.092 441.54 271.751C447.653 277.231 452.947 278.362 461.111 279.996C469.17 281.609 474.026 281.028 482.187 279.996C489.397 279.085 493.609 278.492 500.252 275.631C507.702 272.423 511.651 269.664 517.313 263.991C525.23 256.06 527.118 249.483 531.364 239.256C536.179 227.659 536.946 220.484 539.393 208.215C541.454 197.878 543.317 192.066 543.408 181.54L543.412 180.992C543.479 173.332 543.519 168.703 541.4 161.169C539.49 154.377 537.754 150.635 533.873 144.679C528.334 136.179 523.422 132.524 515.306 126.249C502.761 116.548 492.61 110.365 490.718 95.208C490.271 91.6351 490.422 89.5802 490.718 85.9928C491.129 80.9937 492.192 78.2968 493.227 73.3826C495.51 62.5313 496.237 56.8922 499.75 45.737C501.536 40.0645 502.059 35.9487 506.775 32.1568C510.637 29.0521 513.837 27.1714 518.819 27.7917C522.558 28.2572 524.852 29.4278 527.35 32.1568C531.042 36.1922 529.859 40.3497 529.859 45.737Z" fill="white"/>
<path d="M23 112.796V19H27.4737V112.796C27.4737 112.796 34.0493 135.054 42.6842 146.741C49.5793 156.073 54.3806 161.026 64.1579 167.287C71.9036 172.246 77.4143 176.114 84.7368 178.006C88.0571 178.864 92.4606 177.785 96.3684 178.899C102.545 180.661 108 190.512 108 190.512V312H104.421V192.299C104.421 192.299 100.842 185.152 96.3684 183.366C91.8947 181.579 87.6967 183.32 83.8421 182.473C77.0877 180.987 71.4372 176.915 64.1579 172.646C52.2195 165.646 46.2698 159.767 38.2105 148.527C29.3704 136.199 23 112.796 23 112.796Z" fill="url(#paint0_linear_176_206)"/>
<path d="M16.7743 80.6052C18.5656 83.2899 20.042 83.3415 22.1482 85.0799C34.2086 95.0338 60.3139 114.613 60.3139 114.613C60.3139 114.613 63.1667 116.109 64.2437 118.192C65.3672 120.366 65.1393 124.457 65.1393 124.457V168.309C65.1393 168.309 65.8826 175.677 62.4524 176.363C57.9742 177.258 56.7045 175.065 53.0481 174.125C48.6507 172.996 46.3538 171.586 41.8525 170.993C37.6912 170.445 34.8055 169.015 31.1047 170.993C28.2613 172.513 27.3109 174.449 25.7308 177.258C23.8737 180.559 24.0932 182.937 23.0438 186.576L14.0874 217.635L10.5048 230.059C10.5048 230.059 9.36906 233.665 10.5048 235.428C12.1248 237.944 14.6977 237.764 17.6707 238.113C20.6438 238.463 22.9048 238.205 25.7308 237.218C28.5325 236.24 29.6319 234.423 31.1047 231.849C34.6881 225.584 36.4794 213.95 36.4794 213.95C36.4794 213.95 38.2707 201.421 40.9568 195.156C41.6456 193.55 42.8672 192.983 44.5394 192.472C47.2383 191.646 49.8903 193.475 52.6011 194.261C55.3118 195.048 58.8706 196.051 58.8706 196.051C58.8706 196.051 68.1344 196.897 72.3045 200.526C73.0506 201.175 74.0958 201.327 74.0958 202.316C74.0958 203.304 73.1023 203.521 72.3045 204.106C69.2019 206.379 66.7079 202.231 63.3488 204.106C59.8221 206.074 59.2984 209.56 57.2775 213.055L19.501 278.385C18.0864 280.831 16.6509 281.931 15.8794 284.649C15.0206 287.676 14.4497 289.901 15.8786 292.704C17.1187 295.136 18.7457 296.094 21.2525 297.178C24.7832 298.706 25.836 297.927 29.3142 296.284C33.9254 294.105 37.668 285.895 37.668 285.895L86.6357 201.709C86.6357 201.709 91.0968 196.543 92.0088 192.472C92.62 189.743 92.1285 185.312 92.1285 185.312C92.1285 185.312 92.6873 143.928 92.0088 143.25C91.1132 142.355 87.6729 140.604 88.4262 138.776C89.1053 137.128 91.4214 137.85 92.9045 138.776C100.07 143.25 107.235 149.515 112.609 153.99C113.415 154.661 113.022 155.711 112.609 156.674C109.922 162.939 103.652 168.308 98.2784 175.468C96.2631 178.153 95.3571 181.381 97.3827 184.417C99.174 187.102 99.174 187.102 101.861 188.892C104.48 190.637 107.503 191.8 109.922 189.787C120.67 180.837 134.104 156.674 134.104 156.674C134.104 156.674 136.12 151.036 134.104 148.62C129.626 143.25 126.365 142.62 121.406 138.776L40.9568 76.4083C34.2932 71.2424 34.6873 70.7611 30.209 68.0762C27.5097 66.4578 25.0416 66.8372 22.1482 68.0762C19.4202 69.2444 17.8766 70.6924 16.7743 73.4458C15.7351 76.0418 15.2221 78.2789 16.7743 80.6052Z" fill="url(#paint1_linear_176_206)"/>
<path d="M92 101.5L94.85 105.58C94.85 105.58 97.6978 103.64 99.2 102.391C100.293 101.483 101.75 99.7826 101.75 99.7826L103.875 96.7391L106 93.6957L95.8 85C95.8 85 94.1 86.8494 94.1 87.6087C94.1 88.368 94.95 89.3478 94.95 89.3478C94.95 89.3478 94.4756 89.9292 94.1 90.2174C93.2602 90.8617 92.5458 90.7474 91.55 91.087C90.5542 91.4265 88.5 92 88.5 92L90 95L99.2 94.5652C99.2 94.5652 99.3091 95.6344 99.2 96.3043C98.7306 99.1858 92 101.5 92 101.5Z" fill="url(#paint2_linear_176_206)"/>
<path d="M76.4206 83.0209C77.8604 79.2866 83.4438 74 83.4438 74L86.955 77.6084C86.955 77.6084 83.4486 80.9559 82.5653 83.0209C81.1858 86.246 82.5653 92.0418 82.5653 92.0418H88.71L91.3434 94.7481L88.71 95.6502L84.3209 96.5523C84.3209 96.5523 84.1546 97.6729 84.3209 98.3564C84.6721 99.7998 85.6647 100.349 86.9369 101.053L86.9544 101.063C89.0672 102.232 93.099 101.063 93.099 101.063L94.8546 105.573C94.8546 105.573 88.852 106.534 85.1987 105.573C84.1485 105.297 82.5653 104.671 82.5653 104.671C82.5653 104.671 77.8604 100.287 76.4206 96.5523C74.5265 91.6395 74.5265 87.9336 76.4206 83.0209Z" fill="url(#paint3_linear_176_206)"/>
<path d="M79.1684 72.2051C79.1684 72.2051 78.7895 70.5421 79.1684 69.5896C79.8725 67.8192 81.8878 68.2592 83.6338 67.4166L84.8782 66.811C84.8782 66.811 86.7991 65.7184 88.1254 65.2308C92.7066 63.5465 96.0513 63.6336 100.665 65.2308C106.03 67.0879 109.141 69.739 111.414 74.8205C113.648 79.815 113.406 83.6788 111.414 88.7692C110.857 90.1921 110.77 91.2217 109.622 92.2564C108.158 93.5771 104.71 93.6362 104.71 93.6362L79.1684 72.2051Z" fill="url(#paint4_linear_176_206)"/>
<path d="M298 336L299.081 308H302.943L301.399 328.713H301.708L307.578 308H311.44L302.429 336H298Z" fill="white"/>
<path d="M470 336L471.081 308H474.943L473.399 328.713H473.708L479.578 308H483.44L474.429 336H470Z" fill="white"/>
<path d="M169 336L173.871 308H177.151L175.367 318.911L180.576 308H184L177.682 321.352L179.225 336H175.801L174.498 324.043L172.328 336H169Z" fill="white"/>
<path d="M349 336L353.871 308H357.151L355.367 318.911L360.576 308H364L357.682 321.352L359.225 336H355.801L354.498 324.043L352.328 336H349Z" fill="white"/>
<path d="M211.342 312.557C211.342 313.621 211.104 315.312 211.104 315.312H214.488C214.488 315.312 214.747 313.637 214.726 312.557C214.713 311.895 214.742 311.509 214.583 310.866C214.377 310.031 214.258 309.463 213.63 308.884C213.024 308.326 212.48 308.267 211.676 308.111C210.853 307.952 210.357 307.974 209.531 308.111C208.758 308.24 208.304 308.346 207.624 308.739C206.79 309.223 206.395 309.669 205.861 310.479C205.265 311.383 205.211 312.047 204.908 313.089C204.622 314.073 204.486 314.636 204.336 315.65C204.17 316.773 203.991 317.426 204.145 318.55C204.249 319.308 204.335 319.75 204.669 320.435C205.115 321.347 205.641 321.684 206.338 322.416C207.105 323.225 207.767 323.431 208.435 324.35C208.857 324.931 208.976 325.371 209.054 326.089C209.114 326.635 209.021 326.946 208.959 327.491C208.857 328.388 208.764 328.891 208.53 329.762C208.297 330.632 208.292 331.26 207.767 331.937C207.525 332.25 207.29 332.369 206.91 332.469C206.585 332.553 206.357 332.608 206.052 332.469C205.646 332.285 205.495 331.948 205.432 331.502C205.337 330.826 205.385 330.352 205.432 329.617C205.49 328.704 205.766 327.298 205.766 327.298H202.334C202.334 327.298 202.162 328.473 202.096 329.231C201.989 330.453 202 332.372 202 332.372C202 332.372 202.142 334.315 202.954 335.078C203.534 335.624 204.037 335.737 204.812 335.9C205.578 336.061 206.039 336.003 206.814 335.9C207.499 335.809 207.899 335.75 208.53 335.465C209.238 335.145 209.613 334.87 210.151 334.305C210.902 333.515 211.082 332.859 211.485 331.84C211.942 330.685 212.015 329.97 212.248 328.747C212.443 327.717 212.62 327.138 212.629 326.089L212.629 326.035C212.636 325.271 212.64 324.81 212.438 324.06C212.257 323.383 212.092 323.01 211.723 322.416C211.197 321.569 210.731 321.205 209.96 320.58C208.768 319.613 207.804 318.997 207.624 317.487C207.582 317.131 207.596 316.926 207.624 316.569C207.664 316.071 207.765 315.802 207.863 315.312C208.08 314.231 208.149 313.669 208.482 312.557C208.652 311.992 208.702 311.582 209.15 311.204C209.516 310.895 209.82 310.707 210.294 310.769C210.649 310.816 210.867 310.932 211.104 311.204C211.455 311.606 211.342 312.021 211.342 312.557Z" fill="white"/>
<path d="M260.342 312.557C260.342 313.621 260.104 315.312 260.104 315.312H263.488C263.488 315.312 263.747 313.637 263.726 312.557C263.713 311.895 263.742 311.509 263.583 310.866C263.377 310.031 263.258 309.463 262.63 308.884C262.024 308.326 261.48 308.267 260.676 308.111C259.853 307.952 259.357 307.974 258.531 308.111C257.758 308.24 257.304 308.346 256.624 308.739C255.79 309.223 255.395 309.669 254.861 310.479C254.265 311.383 254.211 312.047 253.908 313.089C253.622 314.073 253.486 314.636 253.336 315.65C253.17 316.773 252.991 317.426 253.145 318.55C253.249 319.308 253.335 319.75 253.669 320.435C254.115 321.347 254.641 321.684 255.338 322.416C256.105 323.225 256.767 323.431 257.435 324.35C257.857 324.931 257.976 325.371 258.054 326.089C258.114 326.635 258.021 326.946 257.959 327.491C257.857 328.388 257.764 328.891 257.53 329.762C257.297 330.632 257.292 331.26 256.767 331.937C256.525 332.25 256.29 332.369 255.91 332.469C255.585 332.553 255.357 332.608 255.052 332.469C254.646 332.285 254.495 331.948 254.432 331.502C254.337 330.826 254.385 330.352 254.432 329.617C254.49 328.704 254.766 327.298 254.766 327.298H251.334C251.334 327.298 251.162 328.473 251.096 329.231C250.989 330.453 251 332.372 251 332.372C251 332.372 251.142 334.315 251.954 335.078C252.534 335.624 253.037 335.737 253.812 335.9C254.578 336.061 255.039 336.003 255.814 335.9C256.499 335.809 256.899 335.75 257.53 335.465C258.238 335.145 258.613 334.87 259.151 334.305C259.902 333.515 260.082 332.859 260.485 331.84C260.942 330.685 261.015 329.97 261.248 328.747C261.443 327.717 261.62 327.138 261.629 326.089L261.629 326.035C261.636 325.271 261.64 324.81 261.438 324.06C261.257 323.383 261.092 323.01 260.723 322.416C260.197 321.569 259.731 321.205 258.96 320.58C257.768 319.613 256.804 318.997 256.624 317.487C256.582 317.131 256.596 316.926 256.624 316.569C256.664 316.071 256.765 315.802 256.863 315.312C257.08 314.231 257.149 313.669 257.482 312.557C257.652 311.992 257.702 311.582 258.15 311.204C258.516 310.895 258.82 310.707 259.294 310.769C259.649 310.816 259.867 310.932 260.104 311.204C260.455 311.606 260.342 312.021 260.342 312.557Z" fill="white"/>
<path d="M440.342 312.557C440.342 313.621 440.104 315.312 440.104 315.312H443.488C443.488 315.312 443.747 313.637 443.726 312.557C443.713 311.895 443.742 311.509 443.583 310.866C443.377 310.031 443.258 309.463 442.63 308.884C442.024 308.326 441.48 308.267 440.676 308.111C439.853 307.952 439.357 307.974 438.531 308.111C437.758 308.24 437.304 308.346 436.624 308.739C435.79 309.223 435.395 309.669 434.861 310.479C434.265 311.383 434.211 312.047 433.908 313.089C433.622 314.073 433.486 314.636 433.336 315.65C433.17 316.773 432.991 317.426 433.145 318.55C433.249 319.308 433.335 319.75 433.669 320.435C434.115 321.347 434.641 321.684 435.338 322.416C436.105 323.225 436.767 323.431 437.435 324.35C437.857 324.931 437.976 325.371 438.054 326.089C438.114 326.635 438.021 326.946 437.959 327.491C437.857 328.388 437.764 328.891 437.53 329.762C437.297 330.632 437.292 331.26 436.767 331.937C436.525 332.25 436.29 332.369 435.91 332.469C435.585 332.553 435.357 332.608 435.052 332.469C434.646 332.285 434.495 331.948 434.432 331.502C434.337 330.826 434.385 330.352 434.432 329.617C434.49 328.704 434.766 327.298 434.766 327.298H431.334C431.334 327.298 431.162 328.473 431.096 329.231C430.989 330.453 431 332.372 431 332.372C431 332.372 431.142 334.315 431.954 335.078C432.534 335.624 433.037 335.737 433.812 335.9C434.578 336.061 435.039 336.003 435.814 335.9C436.499 335.809 436.899 335.75 437.53 335.465C438.238 335.145 438.613 334.87 439.151 334.305C439.902 333.515 440.082 332.859 440.485 331.84C440.942 330.685 441.015 329.97 441.248 328.747C441.443 327.717 441.62 327.138 441.629 326.089L441.629 326.035C441.636 325.271 441.64 324.81 441.438 324.06C441.257 323.383 441.092 323.01 440.723 322.416C440.197 321.569 439.731 321.205 438.96 320.58C437.768 319.613 436.804 318.997 436.624 317.487C436.582 317.131 436.596 316.926 436.624 316.569C436.664 316.071 436.765 315.802 436.863 315.312C437.08 314.231 437.149 313.669 437.482 312.557C437.652 311.992 437.702 311.582 438.15 311.204C438.516 310.895 438.82 310.707 439.294 310.769C439.649 310.816 439.867 310.932 440.104 311.204C440.455 311.606 440.342 312.021 440.342 312.557Z" fill="white"/>
<path d="M200.294 308L195 336H198.706L204 308H200.294Z" fill="white"/>
<path d="M347.294 308L342 336H345.706L351 308H347.294Z" fill="white"/>
<path d="M376.294 308L371 336H374.706L377.119 323.235H381L378.5 336H382L387 308H383.5L381.5 320H377.731L380 308H376.294Z" fill="white"/>
<path d="M485.294 308L480 336H483.706L489 308H485.294Z" fill="white"/>
<path d="M337.294 308L332 336H335.706H339.5L341 332.5H336.5L341 308H337.294Z" fill="white"/>
<path d="M404.294 308L399 336H402.706H406.5L408 332.5H403.5L408 308H404.294Z" fill="white"/>
<path d="M240.294 308L235 336H238.706L241.784 319.719L243.5 336H247L252 308H248.5L245 325L244 308H240.294Z" fill="white"/>
<path d="M277.294 308L272 336H275.706L278.784 319.719L280.5 336H284L289 308H285.5L282 325L281 308H277.294Z" fill="white"/>
<path d="M230.294 308L225 336H228.706H233.338L234 332.716H229.327L231 323.5H235L235.5 320H231.5L233.338 311.5H237L238 308H234H230.294Z" fill="white"/>
<path d="M313.294 308L308 336H311.706H316.338L317 332.716H312.327L314 323.5H318L318.5 320H314.5L316.338 311.5H320L321 308H317H313.294Z" fill="white"/>
<path d="M366.294 308L361 336H364.706H369.338L370 332.716H365.327L367 323.5H371L371.5 320H367.5L369.338 311.5H373L374 308H370H366.294Z" fill="white"/>
<path d="M447.294 308L442 336H445.706H450.338L451 332.716H446.327L448 323.5H452L452.5 320H448.5L450.338 311.5H454L455 308H451H447.294Z" fill="white"/>
<path d="M504.294 308L499 336H502.706H507.338L508 332.716H503.327L505 323.5H509L509.5 320H505.5L507.338 311.5H511L512 308H508H504.294Z" fill="white"/>
<path d="M267.294 308L262 336H265.706H270.338L271 332.716H266.327L268 323.5H272L272.5 320H268.5L270.338 311.5H274L275 308H271H267.294Z" fill="white"/>
<path d="M225 308H221.294H217.5L217 311.794H220.577L216 336H219.706L224.283 311.794H227.182L228 308H225Z" fill="white"/>
<path d="M324.13 332.531H324.963C324.963 332.531 325.478 331.921 325.748 331.489C326.294 330.614 326.406 330.016 326.729 329.037C327.13 327.819 327.513 325.849 327.513 325.849C327.874 324.267 328.058 323.376 328.347 321.779C328.606 320.348 328.935 318.101 328.935 318.101C328.935 318.101 329.168 316.64 329.279 315.698C329.373 314.896 329.468 314.447 329.475 313.639C329.478 313.179 329.426 312.462 329.426 312.462C329.426 312.462 329.181 311.384 328.641 311.188C328.188 311.103 327.151 311.188 326.484 311.188H326.287L322.266 332.567L324.13 332.531ZM318 336L323.296 308L326.119 308C327.037 308 330.112 308 330.21 308C330.456 308.001 331.221 308.026 332.025 309.373C332.258 309.765 332.417 311.384 332.417 311.384L332.466 314.081C332.466 314.081 332.398 316.207 332.27 317.562C332.106 319.296 331.901 320.255 331.632 321.976C331.381 323.587 331.249 324.493 330.946 326.095C330.717 327.306 330.639 327.998 330.308 329.185C330.065 330.06 329.958 330.569 329.573 331.391C329.369 331.826 329.225 332.055 328.984 332.47C328.574 333.178 328.366 333.595 327.857 334.235C327.263 334.982 326.287 335.952 326.119 335.952C325.95 335.952 318 336 318 336Z" fill="white"/>
<path d="M391.126 332.53C391.451 332.532 391.959 332.53 391.959 332.53C391.959 332.53 392.595 331.726 392.744 331.488C393.29 330.614 393.402 330.016 393.725 329.037C394.126 327.819 394.509 325.849 394.509 325.849C394.87 324.267 395.054 323.375 395.343 321.779C395.602 320.348 395.931 318.101 395.931 318.101C395.931 318.101 396.164 316.64 396.275 315.698C396.369 314.896 396.464 314.447 396.471 313.639C396.474 313.179 396.422 312.462 396.422 312.462C396.422 312.462 396.108 311.533 395.637 311.188C394.896 310.644 394.023 310.641 393.283 311.188C392.803 311.542 392.594 312.002 392.5 312.5C392.5 312.5 390.816 320.608 390 325.849C389.811 327.064 389.538 328.963 389.538 328.963L389.091 331.391C389.091 331.391 389.155 332.194 389.5 332.5C389.652 332.635 390.491 332.526 391.126 332.53ZM387.63 335.225C386.85 334.377 387 332.5 387 332.5C387 332.5 386.963 330.976 386.996 330C387.119 326.439 389.601 314.481 389.996 313C390.391 311.519 391.496 309.373 391.496 309.373C391.496 309.373 392.197 308 393.115 308C394.033 308 397.206 308 397.206 308C397.452 308.001 398.217 308.026 399.021 309.373C399.254 309.765 399.413 311.384 399.413 311.384L399.462 314.081C399.462 314.081 399.395 316.207 399.266 317.562C399.102 319.296 398.897 320.255 398.628 321.976C398.377 323.587 398.245 324.493 397.942 326.095C397.713 327.305 397.635 327.998 397.304 329.184C397.061 330.059 396.954 330.568 396.569 331.391C396.365 331.826 396.221 332.055 395.98 332.47C395.57 333.178 395.362 333.595 394.853 334.235C394.259 334.982 393.283 335.952 393.115 335.952C393.115 335.952 389.092 336.816 387.63 335.225Z" fill="white"/>
<path d="M492.5 332.5C491.961 332.71 491.862 332.646 491.5 332.5C490.852 332.239 490.716 330.892 490.716 330.892L491.5 325.5L494 312C494.094 311.502 494.356 310.785 495 310.5C495.736 310.175 496.086 310.086 496.5 310.5C497 311 496.838 315.199 496.838 315.199H500C500 315.199 500.234 310.392 500 310C499.197 308.653 498.567 308.001 498.322 308L494.301 308C493.383 308 493 309 493 309C493 309 491.408 311.019 491.014 312.5C490.619 313.981 488.136 325.939 488.014 329.5C487.981 330.476 488.018 332 488.018 332C488.018 332 487.867 333.877 488.647 334.726C490.109 336.317 494.133 335.452 494.133 335.452C494.301 335.452 495.277 334.482 495.87 333.736C496.086 333.324 497.53 331.371 497.5 330.892C497.414 329.5 497.5 327.5 497.5 327.5H494.5C494.5 327.5 494.308 330.114 493.762 330.989C493.613 331.227 493.216 332.221 492.5 332.5Z" fill="white"/>
<path d="M415.13 332.531H415.963C415.963 332.531 416.478 331.921 416.748 331.489C417.294 330.614 417.406 330.016 417.729 329.037C418.13 327.819 418.513 325.849 418.513 325.849C418.874 324.267 419.058 323.376 419.347 321.779C419.606 320.348 419.935 318.101 419.935 318.101C419.935 318.101 420.168 316.64 420.279 315.698C420.373 314.896 420.468 314.447 420.475 313.639C420.478 313.179 420.426 312.462 420.426 312.462C420.426 312.462 420.181 311.384 419.641 311.188C419.188 311.103 418.151 311.188 417.484 311.188H417.287L413.266 332.567L415.13 332.531ZM409 336L414.296 308L417.119 308C418.037 308 421.112 308 421.21 308C421.456 308.001 422.221 308.026 423.025 309.373C423.258 309.765 423.417 311.384 423.417 311.384L423.466 314.081C423.466 314.081 423.398 316.207 423.27 317.562C423.106 319.296 422.901 320.255 422.632 321.976C422.381 323.587 422.249 324.493 421.946 326.095C421.717 327.306 421.639 327.998 421.308 329.185C421.065 330.06 420.958 330.569 420.573 331.391C420.369 331.826 420.225 332.055 419.984 332.47C419.574 333.178 419.366 333.595 418.857 334.235C418.263 334.982 417.287 335.952 417.119 335.952C416.95 335.952 409 336 409 336Z" fill="white"/>
<path d="M453 336L457.5 308H460.014C461.866 308 464.311 308.253 465.5 309C466.689 309.738 466.929 310.706 467.5 312C468.071 313.294 466.5 318 466.5 318C466.5 318 465.071 320.724 464.5 322C463.929 323.276 463.748 322.615 464.89 323.422C463.108 322.971 463.337 323 461.5 323C460.461 323 458.84 323 458.84 323L459.38 320C460.646 320 461.867 320.069 462 320C463.163 319.398 463.127 318.256 463.5 317C464.112 314.941 464.28 311.956 463.5 311.5C462.72 311.035 462.282 311 461 311L456.5 336H453ZM464.89 323.422C464.542 328.334 464 336 464 336L460.5 336C460.5 336 461.109 328.077 461.5 323C462 322.5 462.5 321.5 462.5 321.5C462.5 321.5 464.246 323.259 464.89 323.422Z" fill="white"/>
<path d="M182 336L186.5 308H189.014C190.866 308 193.311 308.253 194.5 309C195.689 309.738 195.929 310.706 196.5 312C197.071 313.294 195.5 318 195.5 318C195.5 318 194.071 320.724 193.5 322C192.929 323.276 192.748 322.615 193.89 323.422C192.108 322.971 192.337 323 190.5 323C189.461 323 187.84 323 187.84 323L188.38 320C189.646 320 190.867 320.069 191 320C192.163 319.398 192.127 318.256 192.5 317C193.112 314.941 193.28 311.956 192.5 311.5C191.72 311.035 191.282 311 190 311L185.5 336H182ZM193.89 323.422C193.542 328.334 193 336 193 336L189.5 336C189.5 336 190.109 328.077 190.5 323C191 322.5 191.5 321.5 191.5 321.5C191.5 321.5 193.246 323.259 193.89 323.422Z" fill="white"/>
<path d="M320.5 281L331.04 0H368.684L353.626 207.87H356.638L413.856 0H451.5L363.665 281H320.5Z" fill="white"/>
<path d="M166 281L216.5 0H250.5L232 109.5L286 0H321.5L256 134L272 281H236.5L223 161L200.5 281H166Z" fill="white"/>
<path d="M529.859 45.737C529.859 56.4072 527.35 73.3826 527.35 73.3826H562.978C562.978 73.3826 565.709 56.5726 565.487 45.737C565.351 39.0848 565.655 35.2158 563.982 28.7617C561.809 20.3804 560.562 14.6866 553.946 8.87636C547.562 3.27079 541.844 2.6752 533.371 1.11622C524.708 -0.477792 519.492 -0.262462 510.79 1.11622C502.656 2.4048 497.874 3.4685 490.718 7.42133C481.934 12.273 477.773 16.7526 472.151 24.8817C465.879 33.9494 465.306 40.6105 462.114 51.0721C459.102 60.9445 457.669 66.5983 456.093 76.7776C454.348 88.0418 452.467 94.5964 454.085 105.878C455.176 113.481 456.082 117.915 459.605 124.794C464.292 133.944 469.84 137.325 477.169 144.679C485.253 152.791 492.223 154.864 499.248 164.079C503.698 169.916 504.948 174.334 505.772 181.54C506.397 187.012 505.418 190.135 504.768 195.605C503.699 204.61 502.712 209.654 500.252 218.4C497.796 227.129 497.743 233.436 492.223 240.226C489.669 243.367 487.194 244.564 483.19 245.561C479.774 246.411 477.377 246.955 474.158 245.561C469.892 243.712 468.295 240.333 467.634 235.861C466.631 229.07 467.141 224.317 467.634 216.945C468.247 207.777 471.147 193.665 471.147 193.665H435.017C435.017 193.665 433.206 205.46 432.508 213.065C431.381 225.334 431.504 244.591 431.504 244.591C431.504 244.591 432.996 264.092 441.54 271.751C447.653 277.231 452.947 278.362 461.111 279.996C469.17 281.609 474.026 281.028 482.187 279.996C489.397 279.085 493.609 278.492 500.252 275.631C507.702 272.423 511.651 269.664 517.313 263.991C525.23 256.06 527.118 249.483 531.364 239.256C536.179 227.659 536.946 220.484 539.393 208.215C541.454 197.878 543.317 192.066 543.408 181.54L543.412 180.992C543.479 173.332 543.519 168.703 541.4 161.169C539.49 154.377 537.754 150.635 533.873 144.679C528.334 136.179 523.422 132.524 515.306 126.249C502.761 116.548 492.61 110.365 490.718 95.208C490.271 91.6351 490.422 89.5802 490.718 85.9928C491.129 80.9937 492.192 78.2968 493.227 73.3826C495.51 62.5313 496.237 56.8922 499.75 45.737C501.536 40.0645 502.059 35.9487 506.775 32.1568C510.637 29.0521 513.837 27.1714 518.819 27.7917C522.558 28.2572 524.852 29.4278 527.35 32.1568C531.042 36.1922 529.859 40.3497 529.859 45.737Z" fill="white"/>
<path d="M23 112.796V19H27.4737V112.796C27.4737 112.796 34.0493 135.054 42.6842 146.741C49.5793 156.073 54.3806 161.026 64.1579 167.287C71.9036 172.246 77.4143 176.114 84.7368 178.006C88.0571 178.864 92.4606 177.785 96.3684 178.899C102.545 180.661 108 190.512 108 190.512V312H104.421V192.299C104.421 192.299 100.842 185.152 96.3684 183.366C91.8947 181.579 87.6967 183.32 83.8421 182.473C77.0877 180.987 71.4372 176.915 64.1579 172.646C52.2195 165.646 46.2698 159.767 38.2105 148.527C29.3704 136.199 23 112.796 23 112.796Z" fill="url(#paint5_linear_176_206)"/>
<path d="M16.7743 80.6052C18.5656 83.2899 20.042 83.3415 22.1482 85.0799C34.2086 95.0338 60.3139 114.613 60.3139 114.613C60.3139 114.613 63.1667 116.109 64.2437 118.192C65.3672 120.366 65.1393 124.457 65.1393 124.457V168.309C65.1393 168.309 65.8826 175.677 62.4524 176.363C57.9742 177.258 56.7045 175.065 53.0481 174.125C48.6507 172.996 46.3538 171.586 41.8525 170.993C37.6912 170.445 34.8055 169.015 31.1047 170.993C28.2613 172.513 27.3109 174.449 25.7308 177.258C23.8737 180.559 24.0932 182.937 23.0438 186.576L14.0874 217.635L10.5048 230.059C10.5048 230.059 9.36906 233.665 10.5048 235.428C12.1248 237.944 14.6977 237.764 17.6707 238.113C20.6438 238.463 22.9048 238.205 25.7308 237.218C28.5325 236.24 29.6319 234.423 31.1047 231.849C34.6881 225.584 36.4794 213.95 36.4794 213.95C36.4794 213.95 38.2707 201.421 40.9568 195.156C41.6456 193.55 42.8672 192.983 44.5394 192.472C47.2383 191.646 49.8903 193.475 52.6011 194.261C55.3118 195.048 58.8706 196.051 58.8706 196.051C58.8706 196.051 68.1344 196.897 72.3045 200.526C73.0506 201.175 74.0958 201.327 74.0958 202.316C74.0958 203.304 73.1023 203.521 72.3045 204.106C69.2019 206.379 66.7079 202.231 63.3488 204.106C59.8221 206.074 59.2984 209.56 57.2775 213.055L19.501 278.385C18.0864 280.831 16.6509 281.931 15.8794 284.649C15.0206 287.676 14.4497 289.901 15.8786 292.704C17.1187 295.136 18.7457 296.094 21.2525 297.178C24.7832 298.706 25.836 297.927 29.3142 296.284C33.9254 294.105 37.668 285.895 37.668 285.895L86.6357 201.709C86.6357 201.709 91.0968 196.543 92.0088 192.472C92.62 189.743 92.1285 185.312 92.1285 185.312C92.1285 185.312 92.6873 143.928 92.0088 143.25C91.1132 142.355 87.6729 140.604 88.4262 138.776C89.1053 137.128 91.4214 137.85 92.9045 138.776C100.07 143.25 107.235 149.515 112.609 153.99C113.415 154.661 113.022 155.711 112.609 156.674C109.922 162.939 103.652 168.308 98.2784 175.468C96.2631 178.153 95.3571 181.381 97.3827 184.417C99.174 187.102 99.174 187.102 101.861 188.892C104.48 190.637 107.503 191.8 109.922 189.787C120.67 180.837 134.104 156.674 134.104 156.674C134.104 156.674 136.12 151.036 134.104 148.62C129.626 143.25 126.365 142.62 121.406 138.776L40.9568 76.4083C34.2932 71.2424 34.6873 70.7611 30.209 68.0762C27.5097 66.4578 25.0416 66.8372 22.1482 68.0762C19.4202 69.2444 17.8766 70.6924 16.7743 73.4458C15.7351 76.0418 15.2221 78.2789 16.7743 80.6052Z" fill="url(#paint6_linear_176_206)"/>
<path d="M92 101.5L94.85 105.58C94.85 105.58 97.6978 103.64 99.2 102.391C100.293 101.483 101.75 99.7826 101.75 99.7826L103.875 96.7391L106 93.6957L95.8 85C95.8 85 94.1 86.8494 94.1 87.6087C94.1 88.368 94.95 89.3478 94.95 89.3478C94.95 89.3478 94.4756 89.9292 94.1 90.2174C93.2602 90.8617 92.5458 90.7474 91.55 91.087C90.5542 91.4265 88.5 92 88.5 92L90 95L99.2 94.5652C99.2 94.5652 99.3091 95.6344 99.2 96.3043C98.7306 99.1858 92 101.5 92 101.5Z" fill="url(#paint7_linear_176_206)"/>
<path d="M76.4206 83.0209C77.8604 79.2866 83.4438 74 83.4438 74L86.955 77.6084C86.955 77.6084 83.4486 80.9559 82.5653 83.0209C81.1858 86.246 82.5653 92.0418 82.5653 92.0418H88.71L91.3434 94.7481L88.71 95.6502L84.3209 96.5523C84.3209 96.5523 84.1546 97.6729 84.3209 98.3564C84.6721 99.7998 85.6647 100.349 86.9369 101.053L86.9544 101.063C89.0672 102.232 93.099 101.063 93.099 101.063L94.8546 105.573C94.8546 105.573 88.852 106.534 85.1987 105.573C84.1485 105.297 82.5653 104.671 82.5653 104.671C82.5653 104.671 77.8604 100.287 76.4206 96.5523C74.5265 91.6395 74.5265 87.9336 76.4206 83.0209Z" fill="url(#paint8_linear_176_206)"/>
<path d="M79.1684 72.2051C79.1684 72.2051 78.7895 70.5421 79.1684 69.5896C79.8725 67.8192 81.8878 68.2592 83.6338 67.4166L84.8782 66.811C84.8782 66.811 86.7991 65.7184 88.1254 65.2308C92.7066 63.5465 96.0513 63.6336 100.665 65.2308C106.03 67.0879 109.141 69.739 111.414 74.8205C113.648 79.815 113.406 83.6788 111.414 88.7692C110.857 90.1921 110.77 91.2217 109.622 92.2564C108.158 93.5771 104.71 93.6362 104.71 93.6362L79.1684 72.2051Z" fill="url(#paint9_linear_176_206)"/>
<path d="M298 336L299.081 308H302.943L301.399 328.713H301.708L307.578 308H311.44L302.429 336H298Z" fill="white"/>
<path d="M470 336L471.081 308H474.943L473.399 328.713H473.708L479.578 308H483.44L474.429 336H470Z" fill="white"/>
<path d="M169 336L173.871 308H177.151L175.367 318.911L180.576 308H184L177.682 321.352L179.225 336H175.801L174.498 324.043L172.328 336H169Z" fill="white"/>
<path d="M349 336L353.871 308H357.151L355.367 318.911L360.576 308H364L357.682 321.352L359.225 336H355.801L354.498 324.043L352.328 336H349Z" fill="white"/>
<path d="M211.342 312.557C211.342 313.621 211.104 315.312 211.104 315.312H214.488C214.488 315.312 214.747 313.637 214.726 312.557C214.713 311.895 214.742 311.509 214.583 310.866C214.377 310.031 214.258 309.463 213.63 308.884C213.024 308.326 212.48 308.267 211.676 308.111C210.853 307.952 210.357 307.974 209.531 308.111C208.758 308.24 208.304 308.346 207.624 308.739C206.79 309.223 206.395 309.669 205.861 310.479C205.265 311.383 205.211 312.047 204.908 313.089C204.622 314.073 204.486 314.636 204.336 315.65C204.17 316.773 203.991 317.426 204.145 318.55C204.249 319.308 204.335 319.75 204.669 320.435C205.115 321.347 205.641 321.684 206.338 322.416C207.105 323.225 207.767 323.431 208.435 324.35C208.857 324.931 208.976 325.371 209.054 326.089C209.114 326.635 209.021 326.946 208.959 327.491C208.857 328.388 208.764 328.891 208.53 329.762C208.297 330.632 208.292 331.26 207.767 331.937C207.525 332.25 207.29 332.369 206.91 332.469C206.585 332.553 206.357 332.608 206.052 332.469C205.646 332.285 205.495 331.948 205.432 331.502C205.337 330.826 205.385 330.352 205.432 329.617C205.49 328.704 205.766 327.298 205.766 327.298H202.334C202.334 327.298 202.162 328.473 202.096 329.231C201.989 330.453 202 332.372 202 332.372C202 332.372 202.142 334.315 202.954 335.078C203.534 335.624 204.037 335.737 204.812 335.9C205.578 336.061 206.039 336.003 206.814 335.9C207.499 335.809 207.899 335.75 208.53 335.465C209.238 335.145 209.613 334.87 210.151 334.305C210.902 333.515 211.082 332.859 211.485 331.84C211.942 330.685 212.015 329.97 212.248 328.747C212.443 327.717 212.62 327.138 212.629 326.089L212.629 326.035C212.636 325.271 212.64 324.81 212.438 324.06C212.257 323.383 212.092 323.01 211.723 322.416C211.197 321.569 210.731 321.205 209.96 320.58C208.768 319.613 207.804 318.997 207.624 317.487C207.582 317.131 207.596 316.926 207.624 316.569C207.664 316.071 207.765 315.802 207.863 315.312C208.08 314.231 208.149 313.669 208.482 312.557C208.652 311.992 208.702 311.582 209.15 311.204C209.516 310.895 209.82 310.707 210.294 310.769C210.649 310.816 210.867 310.932 211.104 311.204C211.455 311.606 211.342 312.021 211.342 312.557Z" fill="white"/>
<path d="M260.342 312.557C260.342 313.621 260.104 315.312 260.104 315.312H263.488C263.488 315.312 263.747 313.637 263.726 312.557C263.713 311.895 263.742 311.509 263.583 310.866C263.377 310.031 263.258 309.463 262.63 308.884C262.024 308.326 261.48 308.267 260.676 308.111C259.853 307.952 259.357 307.974 258.531 308.111C257.758 308.24 257.304 308.346 256.624 308.739C255.79 309.223 255.395 309.669 254.861 310.479C254.265 311.383 254.211 312.047 253.908 313.089C253.622 314.073 253.486 314.636 253.336 315.65C253.17 316.773 252.991 317.426 253.145 318.55C253.249 319.308 253.335 319.75 253.669 320.435C254.115 321.347 254.641 321.684 255.338 322.416C256.105 323.225 256.767 323.431 257.435 324.35C257.857 324.931 257.976 325.371 258.054 326.089C258.114 326.635 258.021 326.946 257.959 327.491C257.857 328.388 257.764 328.891 257.53 329.762C257.297 330.632 257.292 331.26 256.767 331.937C256.525 332.25 256.29 332.369 255.91 332.469C255.585 332.553 255.357 332.608 255.052 332.469C254.646 332.285 254.495 331.948 254.432 331.502C254.337 330.826 254.385 330.352 254.432 329.617C254.49 328.704 254.766 327.298 254.766 327.298H251.334C251.334 327.298 251.162 328.473 251.096 329.231C250.989 330.453 251 332.372 251 332.372C251 332.372 251.142 334.315 251.954 335.078C252.534 335.624 253.037 335.737 253.812 335.9C254.578 336.061 255.039 336.003 255.814 335.9C256.499 335.809 256.899 335.75 257.53 335.465C258.238 335.145 258.613 334.87 259.151 334.305C259.902 333.515 260.082 332.859 260.485 331.84C260.942 330.685 261.015 329.97 261.248 328.747C261.443 327.717 261.62 327.138 261.629 326.089L261.629 326.035C261.636 325.271 261.64 324.81 261.438 324.06C261.257 323.383 261.092 323.01 260.723 322.416C260.197 321.569 259.731 321.205 258.96 320.58C257.768 319.613 256.804 318.997 256.624 317.487C256.582 317.131 256.596 316.926 256.624 316.569C256.664 316.071 256.765 315.802 256.863 315.312C257.08 314.231 257.149 313.669 257.482 312.557C257.652 311.992 257.702 311.582 258.15 311.204C258.516 310.895 258.82 310.707 259.294 310.769C259.649 310.816 259.867 310.932 260.104 311.204C260.455 311.606 260.342 312.021 260.342 312.557Z" fill="white"/>
<path d="M440.342 312.557C440.342 313.621 440.104 315.312 440.104 315.312H443.488C443.488 315.312 443.747 313.637 443.726 312.557C443.713 311.895 443.742 311.509 443.583 310.866C443.377 310.031 443.258 309.463 442.63 308.884C442.024 308.326 441.48 308.267 440.676 308.111C439.853 307.952 439.357 307.974 438.531 308.111C437.758 308.24 437.304 308.346 436.624 308.739C435.79 309.223 435.395 309.669 434.861 310.479C434.265 311.383 434.211 312.047 433.908 313.089C433.622 314.073 433.486 314.636 433.336 315.65C433.17 316.773 432.991 317.426 433.145 318.55C433.249 319.308 433.335 319.75 433.669 320.435C434.115 321.347 434.641 321.684 435.338 322.416C436.105 323.225 436.767 323.431 437.435 324.35C437.857 324.931 437.976 325.371 438.054 326.089C438.114 326.635 438.021 326.946 437.959 327.491C437.857 328.388 437.764 328.891 437.53 329.762C437.297 330.632 437.292 331.26 436.767 331.937C436.525 332.25 436.29 332.369 435.91 332.469C435.585 332.553 435.357 332.608 435.052 332.469C434.646 332.285 434.495 331.948 434.432 331.502C434.337 330.826 434.385 330.352 434.432 329.617C434.49 328.704 434.766 327.298 434.766 327.298H431.334C431.334 327.298 431.162 328.473 431.096 329.231C430.989 330.453 431 332.372 431 332.372C431 332.372 431.142 334.315 431.954 335.078C432.534 335.624 433.037 335.737 433.812 335.9C434.578 336.061 435.039 336.003 435.814 335.9C436.499 335.809 436.899 335.75 437.53 335.465C438.238 335.145 438.613 334.87 439.151 334.305C439.902 333.515 440.082 332.859 440.485 331.84C440.942 330.685 441.015 329.97 441.248 328.747C441.443 327.717 441.62 327.138 441.629 326.089L441.629 326.035C441.636 325.271 441.64 324.81 441.438 324.06C441.257 323.383 441.092 323.01 440.723 322.416C440.197 321.569 439.731 321.205 438.96 320.58C437.768 319.613 436.804 318.997 436.624 317.487C436.582 317.131 436.596 316.926 436.624 316.569C436.664 316.071 436.765 315.802 436.863 315.312C437.08 314.231 437.149 313.669 437.482 312.557C437.652 311.992 437.702 311.582 438.15 311.204C438.516 310.895 438.82 310.707 439.294 310.769C439.649 310.816 439.867 310.932 440.104 311.204C440.455 311.606 440.342 312.021 440.342 312.557Z" fill="white"/>
<path d="M200.294 308L195 336H198.706L204 308H200.294Z" fill="white"/>
<path d="M347.294 308L342 336H345.706L351 308H347.294Z" fill="white"/>
<path d="M376.294 308L371 336H374.706L377.119 323.235H381L378.5 336H382L387 308H383.5L381.5 320H377.731L380 308H376.294Z" fill="white"/>
<path d="M485.294 308L480 336H483.706L489 308H485.294Z" fill="white"/>
<path d="M337.294 308L332 336H335.706H339.5L341 332.5H336.5L341 308H337.294Z" fill="white"/>
<path d="M404.294 308L399 336H402.706H406.5L408 332.5H403.5L408 308H404.294Z" fill="white"/>
<path d="M240.294 308L235 336H238.706L241.784 319.719L243.5 336H247L252 308H248.5L245 325L244 308H240.294Z" fill="white"/>
<path d="M277.294 308L272 336H275.706L278.784 319.719L280.5 336H284L289 308H285.5L282 325L281 308H277.294Z" fill="white"/>
<path d="M230.294 308L225 336H228.706H233.338L234 332.716H229.327L231 323.5H235L235.5 320H231.5L233.338 311.5H237L238 308H234H230.294Z" fill="white"/>
<path d="M313.294 308L308 336H311.706H316.338L317 332.716H312.327L314 323.5H318L318.5 320H314.5L316.338 311.5H320L321 308H317H313.294Z" fill="white"/>
<path d="M366.294 308L361 336H364.706H369.338L370 332.716H365.327L367 323.5H371L371.5 320H367.5L369.338 311.5H373L374 308H370H366.294Z" fill="white"/>
<path d="M447.294 308L442 336H445.706H450.338L451 332.716H446.327L448 323.5H452L452.5 320H448.5L450.338 311.5H454L455 308H451H447.294Z" fill="white"/>
<path d="M504.294 308L499 336H502.706H507.338L508 332.716H503.327L505 323.5H509L509.5 320H505.5L507.338 311.5H511L512 308H508H504.294Z" fill="white"/>
<path d="M267.294 308L262 336H265.706H270.338L271 332.716H266.327L268 323.5H272L272.5 320H268.5L270.338 311.5H274L275 308H271H267.294Z" fill="white"/>
<path d="M225 308H221.294H217.5L217 311.794H220.577L216 336H219.706L224.283 311.794H227.182L228 308H225Z" fill="white"/>
<path d="M324.13 332.531H324.963C324.963 332.531 325.478 331.921 325.748 331.489C326.294 330.614 326.406 330.016 326.729 329.037C327.13 327.819 327.513 325.849 327.513 325.849C327.874 324.267 328.058 323.376 328.347 321.779C328.606 320.348 328.935 318.101 328.935 318.101C328.935 318.101 329.168 316.64 329.279 315.698C329.373 314.896 329.468 314.447 329.475 313.639C329.478 313.179 329.426 312.462 329.426 312.462C329.426 312.462 329.181 311.384 328.641 311.188C328.188 311.103 327.151 311.188 326.484 311.188H326.287L322.266 332.567L324.13 332.531ZM318 336L323.296 308L326.119 308C327.037 308 330.112 308 330.21 308C330.456 308.001 331.221 308.026 332.025 309.373C332.258 309.765 332.417 311.384 332.417 311.384L332.466 314.081C332.466 314.081 332.398 316.207 332.27 317.562C332.106 319.296 331.901 320.255 331.632 321.976C331.381 323.587 331.249 324.493 330.946 326.095C330.717 327.306 330.639 327.998 330.308 329.185C330.065 330.06 329.958 330.569 329.573 331.391C329.369 331.826 329.225 332.055 328.984 332.47C328.574 333.178 328.366 333.595 327.857 334.235C327.263 334.982 326.287 335.952 326.119 335.952C325.95 335.952 318 336 318 336Z" fill="white"/>
<path d="M391.126 332.53C391.451 332.532 391.959 332.53 391.959 332.53C391.959 332.53 392.595 331.726 392.744 331.488C393.29 330.614 393.402 330.016 393.725 329.037C394.126 327.819 394.509 325.849 394.509 325.849C394.87 324.267 395.054 323.375 395.343 321.779C395.602 320.348 395.931 318.101 395.931 318.101C395.931 318.101 396.164 316.64 396.275 315.698C396.369 314.896 396.464 314.447 396.471 313.639C396.474 313.179 396.422 312.462 396.422 312.462C396.422 312.462 396.108 311.533 395.637 311.188C394.896 310.644 394.023 310.641 393.283 311.188C392.803 311.542 392.594 312.002 392.5 312.5C392.5 312.5 390.816 320.608 390 325.849C389.811 327.064 389.538 328.963 389.538 328.963L389.091 331.391C389.091 331.391 389.155 332.194 389.5 332.5C389.652 332.635 390.491 332.526 391.126 332.53ZM387.63 335.225C386.85 334.377 387 332.5 387 332.5C387 332.5 386.963 330.976 386.996 330C387.119 326.439 389.601 314.481 389.996 313C390.391 311.519 391.496 309.373 391.496 309.373C391.496 309.373 392.197 308 393.115 308C394.033 308 397.206 308 397.206 308C397.452 308.001 398.217 308.026 399.021 309.373C399.254 309.765 399.413 311.384 399.413 311.384L399.462 314.081C399.462 314.081 399.395 316.207 399.266 317.562C399.102 319.296 398.897 320.255 398.628 321.976C398.377 323.587 398.245 324.493 397.942 326.095C397.713 327.305 397.635 327.998 397.304 329.184C397.061 330.059 396.954 330.568 396.569 331.391C396.365 331.826 396.221 332.055 395.98 332.47C395.57 333.178 395.362 333.595 394.853 334.235C394.259 334.982 393.283 335.952 393.115 335.952C393.115 335.952 389.092 336.816 387.63 335.225Z" fill="white"/>
<path d="M492.5 332.5C491.961 332.71 491.862 332.646 491.5 332.5C490.852 332.239 490.716 330.892 490.716 330.892L491.5 325.5L494 312C494.094 311.502 494.356 310.785 495 310.5C495.736 310.175 496.086 310.086 496.5 310.5C497 311 496.838 315.199 496.838 315.199H500C500 315.199 500.234 310.392 500 310C499.197 308.653 498.567 308.001 498.322 308L494.301 308C493.383 308 493 309 493 309C493 309 491.408 311.019 491.014 312.5C490.619 313.981 488.136 325.939 488.014 329.5C487.981 330.476 488.018 332 488.018 332C488.018 332 487.867 333.877 488.647 334.726C490.109 336.317 494.133 335.452 494.133 335.452C494.301 335.452 495.277 334.482 495.87 333.736C496.086 333.324 497.53 331.371 497.5 330.892C497.414 329.5 497.5 327.5 497.5 327.5H494.5C494.5 327.5 494.308 330.114 493.762 330.989C493.613 331.227 493.216 332.221 492.5 332.5Z" fill="white"/>
<path d="M415.13 332.531H415.963C415.963 332.531 416.478 331.921 416.748 331.489C417.294 330.614 417.406 330.016 417.729 329.037C418.13 327.819 418.513 325.849 418.513 325.849C418.874 324.267 419.058 323.376 419.347 321.779C419.606 320.348 419.935 318.101 419.935 318.101C419.935 318.101 420.168 316.64 420.279 315.698C420.373 314.896 420.468 314.447 420.475 313.639C420.478 313.179 420.426 312.462 420.426 312.462C420.426 312.462 420.181 311.384 419.641 311.188C419.188 311.103 418.151 311.188 417.484 311.188H417.287L413.266 332.567L415.13 332.531ZM409 336L414.296 308L417.119 308C418.037 308 421.112 308 421.21 308C421.456 308.001 422.221 308.026 423.025 309.373C423.258 309.765 423.417 311.384 423.417 311.384L423.466 314.081C423.466 314.081 423.398 316.207 423.27 317.562C423.106 319.296 422.901 320.255 422.632 321.976C422.381 323.587 422.249 324.493 421.946 326.095C421.717 327.306 421.639 327.998 421.308 329.185C421.065 330.06 420.958 330.569 420.573 331.391C420.369 331.826 420.225 332.055 419.984 332.47C419.574 333.178 419.366 333.595 418.857 334.235C418.263 334.982 417.287 335.952 417.119 335.952C416.95 335.952 409 336 409 336Z" fill="white"/>
<path d="M453 336L457.5 308H460.014C461.866 308 464.311 308.253 465.5 309C466.689 309.738 466.929 310.706 467.5 312C468.071 313.294 466.5 318 466.5 318C466.5 318 465.071 320.724 464.5 322C463.929 323.276 463.748 322.615 464.89 323.422C463.108 322.971 463.337 323 461.5 323C460.461 323 458.84 323 458.84 323L459.38 320C460.646 320 461.867 320.069 462 320C463.163 319.398 463.127 318.256 463.5 317C464.112 314.941 464.28 311.956 463.5 311.5C462.72 311.035 462.282 311 461 311L456.5 336H453ZM464.89 323.422C464.542 328.334 464 336 464 336L460.5 336C460.5 336 461.109 328.077 461.5 323C462 322.5 462.5 321.5 462.5 321.5C462.5 321.5 464.246 323.259 464.89 323.422Z" fill="white"/>
<path d="M182 336L186.5 308H189.014C190.866 308 193.311 308.253 194.5 309C195.689 309.738 195.929 310.706 196.5 312C197.071 313.294 195.5 318 195.5 318C195.5 318 194.071 320.724 193.5 322C192.929 323.276 192.748 322.615 193.89 323.422C192.108 322.971 192.337 323 190.5 323C189.461 323 187.84 323 187.84 323L188.38 320C189.646 320 190.867 320.069 191 320C192.163 319.398 192.127 318.256 192.5 317C193.112 314.941 193.28 311.956 192.5 311.5C191.72 311.035 191.282 311 190 311L185.5 336H182ZM193.89 323.422C193.542 328.334 193 336 193 336L189.5 336C189.5 336 190.109 328.077 190.5 323C191 322.5 191.5 321.5 191.5 321.5C191.5 321.5 193.246 323.259 193.89 323.422Z" fill="white"/>
<defs>
<linearGradient id="paint0_linear_176_206" x1="26.389" y1="37.3921" x2="130.046" y2="70.8423" gradientUnits="userSpaceOnUse">
<stop stop-color="#F29608"/>
<stop offset="1" stop-color="#F4E105"/>
</linearGradient>
<linearGradient id="paint1_linear_176_206" x1="14.9838" y1="81.5002" x2="138.531" y2="155.867" gradientUnits="userSpaceOnUse">
<stop stop-color="#F29608"/>
<stop offset="1" stop-color="#F4E105"/>
</linearGradient>
<linearGradient id="paint2_linear_176_206" x1="89.6439" y1="87.0158" x2="100.694" y2="97.8872" gradientUnits="userSpaceOnUse">
<stop stop-color="#F4D705"/>
<stop offset="1" stop-color="#F4E105"/>
</linearGradient>
<linearGradient id="paint3_linear_176_206" x1="76.0366" y1="76.0087" x2="95.3054" y2="93.4238" gradientUnits="userSpaceOnUse">
<stop stop-color="#F29608"/>
<stop offset="1" stop-color="#F4E105"/>
</linearGradient>
<linearGradient id="paint4_linear_176_206" x1="80.3556" y1="65.8831" x2="98.036" y2="88.1726" gradientUnits="userSpaceOnUse">
<stop stop-color="#F29608"/>
<stop offset="1" stop-color="#F4E105"/>
</linearGradient>
<linearGradient id="paint5_linear_176_206" x1="26.389" y1="37.3921" x2="130.046" y2="70.8423" gradientUnits="userSpaceOnUse">
<stop stop-color="#F29608"/>
<stop offset="1" stop-color="#F4E105"/>
</linearGradient>
<linearGradient id="paint6_linear_176_206" x1="14.9838" y1="81.5002" x2="138.531" y2="155.867" gradientUnits="userSpaceOnUse">
<stop stop-color="#F29608"/>
<stop offset="1" stop-color="#F4E105"/>
</linearGradient>
<linearGradient id="paint7_linear_176_206" x1="89.6439" y1="87.0158" x2="100.694" y2="97.8872" gradientUnits="userSpaceOnUse">
<stop stop-color="#F4D705"/>
<stop offset="1" stop-color="#F4E105"/>
</linearGradient>
<linearGradient id="paint8_linear_176_206" x1="76.0366" y1="76.0087" x2="95.3054" y2="93.4238" gradientUnits="userSpaceOnUse">
<stop stop-color="#F29608"/>
<stop offset="1" stop-color="#F4E105"/>
</linearGradient>
<linearGradient id="paint9_linear_176_206" x1="80.3556" y1="65.8831" x2="98.036" y2="88.1726" gradientUnits="userSpaceOnUse">
<stop stop-color="#F29608"/>
<stop offset="1" stop-color="#F4E105"/>
</linearGradient>
</defs>
</svg>
