<svg width="413" height="336" viewBox="0 0 413 336" fill="none" xmlns="http://www.w3.org/2000/svg">
<path d="M167.5 191.406L178.04 0H215.684L200.626 141.592H203.638L260.856 0H298.5L210.665 191.406H167.5Z" fill="white"/>
<path d="M13 191.406L63.5 0H97.5L79 74.5869L133 0H168.5L103 91.2753L119 191.406H83.5L70 109.667L47.5 191.406H13Z" fill="white"/>
<path d="M376.359 31.7392C376.359 39.1438 373.85 50.9238 373.85 50.9238H409.478C409.478 50.9238 412.209 39.2586 411.987 31.7392C411.851 27.1229 412.155 24.438 410.482 19.9592C408.309 14.143 407.062 10.1917 400.446 6.15975C394.062 2.26977 388.344 1.85646 379.871 0.774598C371.208 -0.331564 365.992 -0.182136 357.29 0.774598C349.156 1.66881 344.374 2.40697 337.218 5.15003C328.434 8.51687 324.273 11.6255 318.651 17.2666C312.379 23.5592 311.806 28.1817 308.614 35.4415C305.602 42.2925 304.169 46.2159 302.593 53.2798C300.848 61.0966 298.967 65.6452 300.585 73.4742C301.676 78.7498 302.582 81.8272 306.105 86.6005C310.792 92.9505 316.34 95.2969 323.669 100.4C331.753 106.029 338.723 107.468 345.748 113.863C350.198 117.913 351.448 120.979 352.272 125.979C352.897 129.777 351.918 131.944 351.268 135.74C350.199 141.989 349.212 145.489 346.752 151.559C344.296 157.616 344.243 161.993 338.723 166.705C336.169 168.885 333.694 169.716 329.69 170.407C326.274 170.997 323.877 171.375 320.658 170.407C316.392 169.124 314.795 166.779 314.134 163.675C313.131 158.963 313.641 155.665 314.134 150.549C314.747 144.187 317.647 134.394 317.647 134.394H281.517C281.517 134.394 279.706 142.579 279.008 147.857C277.881 156.371 278.004 169.734 278.004 169.734C278.004 169.734 279.496 183.267 288.04 188.582C294.153 192.384 299.447 193.17 307.611 194.304C315.67 195.423 320.526 195.02 328.687 194.304C335.897 193.671 340.109 193.259 346.752 191.274C354.202 189.048 358.151 187.133 363.813 183.197C371.73 177.693 373.618 173.129 377.864 166.031C382.679 157.984 383.446 153.005 385.893 144.491C387.954 137.318 389.817 133.284 389.908 125.979C389.976 120.434 390.07 117.195 387.9 111.843C385.99 107.13 384.254 104.533 380.373 100.4C374.834 94.5012 369.922 91.9651 361.806 87.6102C349.261 80.8787 339.11 76.5878 337.218 66.0696C336.771 63.5902 336.922 62.1642 337.218 59.6747C337.629 56.2056 338.692 54.3341 339.727 50.9238C342.01 43.3936 342.737 39.4804 346.25 31.7392C348.036 27.8028 348.559 24.9466 353.275 22.3152C357.137 20.1607 360.337 18.8556 365.319 19.2861C369.058 19.6091 371.352 20.4214 373.85 22.3152C377.542 25.1155 376.359 28.0007 376.359 31.7392Z" fill="white"/>
<path d="M0 335.657L2.09788 283.988H9.5903L6.59333 322.21H7.19272L18.5812 283.988H26.0736L8.59131 335.657H0Z" fill="white"/>
<path d="M98.9414 335.657L108.392 283.988H114.755L111.293 304.123L121.398 283.988H128.041L115.784 308.627L118.778 335.657H112.135L109.608 313.592L105.398 335.657H98.9414Z" fill="white"/>
<path d="M95.6319 283.988L85.3613 335.657H92.5507L102.821 283.988H95.6319Z" fill="white"/>
<path d="M151.892 283.988L141.621 335.657H148.811L153.493 312.102H161.021L156.171 335.657H162.961L172.661 283.988H165.871L161.991 306.132H154.679L159.081 283.988H151.892Z" fill="white"/>
<path d="M76.2315 283.988L65.9609 335.657H73.1504H80.5109L83.421 329.198H74.6909L83.421 283.988H76.2315Z" fill="white"/>
<path d="M206.212 283.988L195.941 335.657H203.131H210.491L213.401 329.198H204.671L213.401 283.988H206.212Z" fill="white"/>
<path d="M29.671 283.988L19.4004 335.657H26.5898H35.5766L36.8604 329.597H27.7944L31.0404 312.591H38.8004L39.7704 306.132H32.0104L35.5766 290.447H42.6804L44.6204 283.988H36.8604H29.671Z" fill="white"/>
<path d="M132.489 283.988L122.219 335.657H129.408H138.395L139.679 329.597H130.613L133.859 312.591H141.619L142.589 306.132H134.829L138.395 290.447H145.499L147.439 283.988H139.679H132.489Z" fill="white"/>
<path d="M50.6924 329.255H52.3097C52.3097 329.255 53.3085 328.129 53.8318 327.332C54.8912 325.718 55.108 324.615 55.7345 322.807C56.5132 320.561 57.2566 316.926 57.2566 316.926C57.9558 314.006 58.313 312.361 58.8739 309.415C59.3767 306.774 60.0155 302.628 60.0155 302.628C60.0155 302.628 60.4675 299.932 60.6814 298.194C60.8637 296.713 61.0496 295.885 61.0619 294.394C61.069 293.545 60.9668 292.222 60.9668 292.222C60.9668 292.222 60.4911 290.233 59.4447 289.871C58.5647 289.714 56.5535 289.871 55.2588 289.871H54.8783L47.0774 329.323L50.6924 329.255ZM38.8008 335.657L49.0752 283.989L54.5515 283.989C56.3316 283.989 62.2986 283.988 62.4889 283.989C62.9646 283.99 64.4504 284.037 66.0088 286.522C66.462 287.245 66.7699 290.232 66.7699 290.232L66.865 295.209C66.865 295.209 66.7339 299.132 66.4845 301.634C66.1656 304.833 65.7682 306.603 65.2478 309.778C64.7604 312.752 64.5041 314.423 63.9159 317.379C63.4716 319.613 63.3202 320.89 62.6792 323.08C62.2065 324.695 61.9996 325.634 61.2522 327.152C60.8573 327.954 60.5772 328.377 60.1106 329.143C59.3152 330.45 58.9099 331.219 57.9225 332.401C56.7713 333.779 54.8783 335.568 54.5515 335.568C54.2246 335.568 38.8008 335.657 38.8008 335.657Z" fill="white"/>
<path d="M180.663 329.255C181.295 329.258 182.28 329.255 182.28 329.255C182.28 329.255 183.514 327.771 183.802 327.332C184.862 325.717 185.079 324.615 185.705 322.807C186.484 320.561 187.227 316.925 187.227 316.925C187.926 314.006 188.284 312.361 188.844 309.415C189.347 306.774 189.986 302.628 189.986 302.628C189.986 302.628 190.438 299.931 190.652 298.194C190.834 296.713 191.02 295.884 191.033 294.393C191.04 293.545 190.937 292.222 190.937 292.222C190.937 292.222 190.329 290.508 189.415 289.87C187.978 288.867 186.283 288.862 184.849 289.87C183.918 290.525 183.511 291.374 183.329 292.292C183.329 292.292 180.062 307.255 178.479 316.925C178.112 319.167 177.582 322.672 177.582 322.672L176.715 327.152C176.715 327.152 176.839 328.633 177.509 329.198C177.805 329.448 179.431 329.247 180.663 329.255ZM173.881 334.228C172.367 332.662 172.659 329.198 172.659 329.198C172.659 329.198 172.587 326.385 172.652 324.585C172.889 318.014 177.705 295.948 178.471 293.215C179.237 290.482 181.381 286.522 181.381 286.522C181.381 286.522 182.742 283.989 184.522 283.989C186.302 283.989 192.46 283.988 192.46 283.988C192.935 283.99 194.421 284.037 195.979 286.522C196.433 287.245 196.741 290.232 196.741 290.232L196.836 295.209C196.836 295.209 196.705 299.132 196.455 301.634C196.136 304.833 195.739 306.603 195.218 309.778C194.731 312.752 194.475 314.422 193.887 317.379C193.442 319.613 193.291 320.89 192.65 323.08C192.177 324.695 191.97 325.634 191.223 327.152C190.828 327.954 190.548 328.377 190.081 329.143C189.286 330.449 188.881 331.219 187.893 332.401C186.742 333.779 184.849 335.568 184.522 335.568C184.522 335.568 176.717 337.164 173.881 334.228Z" fill="white"/>
<path d="M227.231 329.255H228.849C228.849 329.255 229.848 328.129 230.371 327.332C231.43 325.718 231.647 324.615 232.274 322.807C233.052 320.561 233.796 316.926 233.796 316.926C234.495 314.006 234.852 312.361 235.413 309.415C235.916 306.774 236.555 302.628 236.555 302.628C236.555 302.628 237.007 299.932 237.22 298.194C237.403 296.713 237.589 295.885 237.601 294.394C237.608 293.545 237.506 292.222 237.506 292.222C237.506 292.222 237.03 290.233 235.984 289.871C235.104 289.714 233.093 289.871 231.798 289.871H231.417L223.616 329.323L227.231 329.255ZM215.34 335.657L225.614 283.989L231.091 283.989C232.871 283.989 238.838 283.988 239.028 283.989C239.504 283.99 240.989 284.037 242.548 286.522C243.001 287.245 243.309 290.232 243.309 290.232L243.404 295.209C243.404 295.209 243.273 299.132 243.024 301.634C242.705 304.833 242.307 306.603 241.787 309.778C241.299 312.752 241.043 314.423 240.455 317.379C240.011 319.613 239.859 320.89 239.218 323.08C238.746 324.695 238.539 325.634 237.791 327.152C237.396 327.954 237.116 328.377 236.65 329.143C235.854 330.45 235.449 331.219 234.462 332.401C233.31 333.779 231.417 335.568 231.091 335.568C230.764 335.568 215.34 335.657 215.34 335.657Z" fill="white"/>
<path d="M330.977 336.001L333.088 283.988H340.631L337.614 322.464H338.217L349.681 283.988H357.224L339.625 336.001H330.977Z" fill="white"/>
<path d="M273.059 292.454C273.059 294.429 272.593 297.571 272.593 297.571H279.202C279.202 297.571 279.708 294.46 279.667 292.454C279.642 291.223 279.698 290.507 279.388 289.312C278.985 287.761 278.754 286.707 277.526 285.631C276.342 284.594 275.282 284.483 273.71 284.195C272.103 283.9 271.136 283.94 269.522 284.195C268.013 284.433 267.126 284.63 265.798 285.362C264.169 286.26 263.397 287.089 262.355 288.594C261.191 290.272 261.085 291.505 260.493 293.442C259.934 295.269 259.668 296.315 259.376 298.2C259.052 300.285 258.704 301.498 259.004 303.586C259.206 304.993 259.374 305.814 260.028 307.087C260.897 308.781 261.926 309.407 263.285 310.768C264.785 312.269 266.078 312.653 267.381 314.359C268.206 315.439 268.438 316.257 268.591 317.591C268.707 318.604 268.525 319.182 268.405 320.194C268.206 321.861 268.023 322.795 267.567 324.414C267.111 326.029 267.102 327.197 266.078 328.453C265.604 329.035 265.145 329.257 264.402 329.441C263.769 329.598 263.324 329.699 262.727 329.441C261.936 329.099 261.639 328.473 261.517 327.645C261.331 326.389 261.425 325.509 261.517 324.144C261.631 322.447 262.168 319.835 262.168 319.835H255.467C255.467 319.835 255.131 322.018 255.001 323.426C254.792 325.697 254.815 329.261 254.815 329.261C254.815 329.261 255.092 332.871 256.677 334.289C257.811 335.303 258.793 335.512 260.307 335.815C261.802 336.113 262.702 336.006 264.216 335.815C265.554 335.646 266.335 335.536 267.567 335.007C268.949 334.413 269.681 333.902 270.732 332.852C272.2 331.384 272.55 330.167 273.338 328.274C274.231 326.127 274.373 324.799 274.827 322.528C275.209 320.615 275.555 319.539 275.572 317.591C275.584 316.112 275.602 315.248 275.199 313.82C274.845 312.563 274.523 311.87 273.803 310.768C272.776 309.195 271.865 308.518 270.359 307.357C268.032 305.561 266.15 304.417 265.798 301.611C265.716 300.95 265.744 300.569 265.798 299.905C265.875 298.98 266.072 298.481 266.264 297.571C266.687 295.563 266.822 294.519 267.474 292.454C267.805 291.404 267.902 290.642 268.777 289.94C269.493 289.366 270.087 289.018 271.011 289.132C271.704 289.219 272.13 289.435 272.593 289.94C273.278 290.687 273.059 291.457 273.059 292.454Z" fill="white"/>
<path d="M360.845 283.988L350.506 336.001H357.743L368.082 283.988H360.845Z" fill="white"/>
<path d="M286.636 283.988L276.297 336.001H283.534H292.581L293.873 329.9H284.747L288.014 312.781H295.826L296.802 306.279H288.991L292.581 290.49H299.732L301.685 283.988H293.873H286.636Z" fill="white"/>
<path d="M397.952 283.988L387.613 336.001H394.851H403.897L405.189 329.9H396.063L399.331 312.781H407.142L408.119 306.279H400.307L403.897 290.49H411.048L413.001 283.988H405.189H397.952Z" fill="white"/>
<path d="M374.919 329.499C373.866 329.89 373.673 329.771 372.966 329.499C371.701 329.013 371.435 326.511 371.435 326.511L372.966 316.496L377.848 291.419C378.031 290.494 378.544 289.161 379.801 288.632C381.239 288.028 381.922 287.863 382.731 288.632C383.707 289.561 383.391 297.361 383.391 297.361H389.566C389.566 297.361 390.022 288.431 389.566 287.703C387.997 285.201 386.768 283.991 386.289 283.989C386.289 283.989 380.228 283.988 378.436 283.988C376.644 283.988 375.895 285.847 375.895 285.847C375.895 285.847 372.787 289.597 372.016 292.348C371.245 295.099 366.397 317.312 366.158 323.927C366.093 325.739 366.165 328.571 366.165 328.571C366.165 328.571 365.871 332.057 367.395 333.634C370.25 336.589 378.107 334.983 378.107 334.983C378.436 334.983 380.342 333.182 381.501 331.795C381.923 331.03 384.742 327.401 384.683 326.511C384.515 323.926 384.683 320.211 384.683 320.211H378.825C378.825 320.211 378.449 325.067 377.383 326.692C377.093 327.134 376.318 328.98 374.919 329.499Z" fill="white"/>
<path d="M297.777 336.001L306.565 283.988H311.474C315.093 283.988 319.867 284.458 322.189 285.846C324.51 287.217 324.979 289.014 326.094 291.419C327.21 293.823 324.142 302.564 324.142 302.564C324.142 302.564 321.351 307.624 320.236 309.994C319.12 312.365 318.766 311.137 320.996 312.636C317.518 311.799 317.965 311.852 314.377 311.852C312.348 311.852 309.182 311.852 309.182 311.852L310.237 306.279C312.709 306.279 315.093 306.408 315.353 306.279C317.625 305.161 317.554 303.039 318.283 300.707C319.478 296.882 319.806 291.336 318.283 290.49C316.76 289.626 315.903 289.561 313.401 289.561L304.613 336.001H297.777ZM320.996 312.636C320.318 321.76 319.259 336.001 319.259 336.001L312.424 336.001C312.424 336.001 313.614 321.283 314.377 311.852C315.353 310.923 316.33 309.066 316.33 309.066C316.33 309.066 319.74 312.333 320.996 312.636Z" fill="white"/>
<path d="M0 274.626L9.51334 222.613H15.9184L12.4333 242.881L22.606 222.613H29.2935L16.9545 247.416L19.9686 274.626H13.281L10.7378 252.414L6.49921 274.626H0Z" fill="white"/>
<path d="M82.6895 231.079C82.6895 233.054 82.2241 236.196 82.2241 236.196H88.8327C88.8327 236.196 89.3391 233.085 89.2981 231.079C89.2729 229.848 89.3292 229.132 89.0188 227.937C88.6159 226.386 88.3846 225.332 87.1573 224.256C85.9732 223.219 84.9126 223.108 83.341 222.82C81.7342 222.525 80.7667 222.565 79.1525 222.82C77.6438 223.058 76.7567 223.255 75.4293 223.987C73.8001 224.885 73.0282 225.714 71.9854 227.219C70.8222 228.897 70.7159 230.13 70.1239 232.067C69.5651 233.894 69.2993 234.94 69.0069 236.825C68.6834 238.91 68.3344 240.123 68.6346 242.211C68.8369 243.618 69.005 244.439 69.6585 245.712C70.5278 247.406 71.5568 248.032 72.9162 249.393C74.4158 250.894 75.7086 251.278 77.0117 252.984C77.837 254.064 78.0689 254.882 78.2217 256.216C78.3377 257.229 78.1561 257.807 78.0355 258.819C77.8371 260.486 77.6542 261.42 77.1978 263.039C76.7423 264.654 76.7324 265.822 75.7086 267.078C75.2348 267.66 74.7757 267.882 74.0332 268.066C73.3995 268.223 72.9548 268.324 72.3577 268.066C71.5665 267.724 71.2704 267.098 71.1477 266.27C70.9616 265.014 71.0563 264.134 71.1477 262.769C71.2614 261.072 71.7993 258.46 71.7993 258.46H65.0976C65.0976 258.46 64.7618 260.643 64.6322 262.051C64.4232 264.322 64.4461 267.886 64.4461 267.886C64.4461 267.886 64.7228 271.496 66.3076 272.914C67.4415 273.928 68.4234 274.137 69.9377 274.44C71.4327 274.738 72.3332 274.631 73.847 274.44C75.1845 274.271 75.9657 274.161 77.1978 273.632C78.5797 273.038 79.3122 272.527 80.3625 271.477C81.8308 270.009 82.1811 268.792 82.9687 266.899C83.8618 264.752 84.0041 263.424 84.458 261.153C84.8403 259.24 85.1859 258.164 85.2026 256.216C85.2153 254.737 85.2326 253.873 84.8303 252.445C84.4759 251.188 84.154 250.495 83.4341 249.393C82.4067 247.82 81.4956 247.143 79.9902 245.982C77.6632 244.186 75.7805 243.042 75.4293 240.236C75.3466 239.575 75.3746 239.194 75.4293 238.53C75.5056 237.605 75.7029 237.106 75.8947 236.196C76.3183 234.188 76.4532 233.144 77.1048 231.079C77.4361 230.029 77.533 229.267 78.4079 228.565C79.1241 227.991 79.7177 227.643 80.6418 227.757C81.3352 227.844 81.7609 228.06 82.2241 228.565C82.9091 229.312 82.6895 230.082 82.6895 231.079Z" fill="white"/>
<path d="M178.383 231.079C178.383 233.054 177.917 236.196 177.917 236.196H184.526C184.526 236.196 185.032 233.085 184.991 231.079C184.966 229.848 185.023 229.132 184.712 227.937C184.309 226.386 184.078 225.332 182.851 224.256C181.667 223.219 180.606 223.108 179.034 222.82C177.428 222.525 176.46 222.565 174.846 222.82C173.337 223.058 172.45 223.255 171.123 223.987C169.494 224.885 168.722 225.714 167.679 227.219C166.516 228.897 166.409 230.13 165.817 232.067C165.258 233.894 164.993 234.94 164.7 236.825C164.377 238.91 164.028 240.123 164.328 242.211C164.53 243.618 164.698 244.439 165.352 245.712C166.221 247.406 167.25 248.032 168.61 249.393C170.109 250.894 171.402 251.278 172.705 252.984C173.53 254.064 173.762 254.882 173.915 256.216C174.031 257.229 173.849 257.807 173.729 258.819C173.53 260.486 173.348 261.42 172.891 263.039C172.436 264.654 172.426 265.822 171.402 267.078C170.928 267.66 170.469 267.882 169.727 268.066C169.093 268.223 168.648 268.324 168.051 268.066C167.26 267.724 166.964 267.098 166.841 266.27C166.655 265.014 166.75 264.134 166.841 262.769C166.955 261.072 167.493 258.46 167.493 258.46H160.791C160.791 258.46 160.455 260.643 160.326 262.051C160.117 264.322 160.139 267.886 160.139 267.886C160.139 267.886 160.416 271.496 162.001 272.914C163.135 273.928 164.117 274.137 165.631 274.44C167.126 274.738 168.027 274.631 169.54 274.44C170.878 274.271 171.659 274.161 172.891 273.632C174.273 273.038 175.006 272.527 176.056 271.477C177.524 270.009 177.874 268.792 178.662 266.899C179.555 264.752 179.697 263.424 180.151 261.153C180.534 259.24 180.879 258.164 180.896 256.216C180.909 254.737 180.926 253.873 180.524 252.445C180.169 251.188 179.847 250.495 179.127 249.393C178.1 247.82 177.189 247.143 175.684 245.982C173.357 244.186 171.474 243.042 171.123 240.236C171.04 239.575 171.068 239.194 171.123 238.53C171.199 237.605 171.396 237.106 171.588 236.196C172.012 234.188 172.147 233.144 172.798 231.079C173.129 230.029 173.226 229.267 174.101 228.565C174.818 227.991 175.411 227.643 176.335 227.757C177.029 227.844 177.454 228.06 177.917 228.565C178.602 229.312 178.383 230.082 178.383 231.079Z" fill="white"/>
<path d="M61.1143 222.613L50.7754 274.626H58.0126L68.3515 222.613H61.1143Z" fill="white"/>
<path d="M139.23 222.613L128.891 274.626H136.128L142.14 244.382L145.49 274.626H152.325L162.09 222.613H155.255L148.42 254.192L146.467 222.613H139.23Z" fill="white"/>
<path d="M211.487 222.613L201.148 274.626H208.386L214.397 244.382L217.748 274.626H224.583L234.348 222.613H227.513L220.677 254.192L218.725 222.613H211.487Z" fill="white"/>
<path d="M119.702 222.613L109.363 274.626H116.601H125.647L126.939 268.525H117.813L121.081 251.406H128.892L129.869 244.904H122.057L125.647 229.115H132.798L134.751 222.613H126.939H119.702Z" fill="white"/>
<path d="M191.96 222.613L181.621 274.626H188.858H197.905L199.197 268.525H190.071L193.339 251.406H201.15L202.127 244.904H194.315L197.905 229.115H205.056L207.009 222.613H199.197H191.96Z" fill="white"/>
<path d="M109.361 222.613H102.124H94.7145L93.7381 229.661H100.723L91.7852 274.626H99.0224L107.96 229.661H113.623L115.22 222.613H109.361Z" fill="white"/>
<path d="M25.3867 274.626L34.1748 222.613H39.0836C42.7021 222.613 47.4762 223.083 49.798 224.471C52.1199 225.842 52.5881 227.639 53.7038 230.044C54.8195 232.448 51.7509 241.189 51.7509 241.189C51.7509 241.189 48.9608 246.249 47.8451 248.619C46.7294 250.99 46.3758 249.762 48.6058 251.261C45.127 250.424 45.5747 250.477 41.9864 250.477C39.9577 250.477 36.7917 250.477 36.7917 250.477L37.8462 244.904C40.3189 244.904 42.7021 245.033 42.9628 244.904C45.2344 243.786 45.1632 241.664 45.8922 239.332C47.0875 235.507 47.415 229.961 45.8922 229.115C44.3694 228.251 43.5127 228.186 41.0099 228.186L32.2219 274.626H25.3867ZM48.6058 251.261C47.9274 260.385 46.8687 274.626 46.8687 274.626L40.0335 274.626C40.0335 274.626 41.2237 259.908 41.9864 250.477C42.9628 249.548 43.9393 247.691 43.9393 247.691C43.9393 247.691 47.3489 250.958 48.6058 251.261Z" fill="white"/>
</svg>
