<svg width="566" height="336" viewBox="0 0 566 336" fill="none" xmlns="http://www.w3.org/2000/svg">
<path d="M320.5 191.406L331.04 0H368.684L353.626 141.592H356.638L413.856 0H451.5L363.665 191.406H320.5Z" fill="white"/>
<path d="M166 191.406L216.5 0H250.5L232 74.5869L286 0H321.5L256 91.2753L272 191.406H236.5L223 109.667L200.5 191.406H166Z" fill="white"/>
<path d="M529.359 31.7392C529.359 39.1438 526.85 50.9238 526.85 50.9238H562.478C562.478 50.9238 565.209 39.2586 564.987 31.7392C564.851 27.1229 565.155 24.438 563.482 19.9592C561.309 14.143 560.062 10.1917 553.446 6.15975C547.062 2.26977 541.344 1.85646 532.871 0.774598C524.208 -0.331564 518.992 -0.182136 510.29 0.774598C502.156 1.66881 497.374 2.40697 490.218 5.15003C481.434 8.51687 477.273 11.6255 471.651 17.2666C465.379 23.5592 464.806 28.1817 461.614 35.4415C458.602 42.2925 457.169 46.2159 455.593 53.2798C453.848 61.0966 451.967 65.6452 453.585 73.4742C454.676 78.7498 455.582 81.8272 459.105 86.6005C463.792 92.9505 469.34 95.2969 476.669 100.4C484.753 106.029 491.723 107.468 498.748 113.863C503.198 117.913 504.448 120.979 505.272 125.979C505.897 129.777 504.918 131.944 504.268 135.74C503.199 141.989 502.212 145.489 499.752 151.559C497.296 157.616 497.243 161.993 491.723 166.705C489.169 168.885 486.694 169.716 482.69 170.407C479.274 170.997 476.877 171.375 473.658 170.407C469.392 169.124 467.795 166.779 467.134 163.675C466.131 158.963 466.641 155.665 467.134 150.549C467.747 144.187 470.647 134.394 470.647 134.394H434.517C434.517 134.394 432.706 142.579 432.008 147.857C430.881 156.371 431.004 169.734 431.004 169.734C431.004 169.734 432.496 183.267 441.04 188.582C447.153 192.384 452.447 193.17 460.611 194.304C468.67 195.423 473.526 195.02 481.687 194.304C488.897 193.671 493.109 193.259 499.752 191.274C507.202 189.048 511.151 187.133 516.813 183.197C524.73 177.693 526.618 173.129 530.864 166.031C535.679 157.984 536.446 153.005 538.893 144.491C540.954 137.318 542.817 133.284 542.908 125.979C542.976 120.434 543.07 117.195 540.9 111.843C538.99 107.13 537.254 104.533 533.373 100.4C527.834 94.5012 522.922 91.9651 514.806 87.6102C502.261 80.8787 492.11 76.5878 490.218 66.0696C489.771 63.5902 489.922 62.1642 490.218 59.6747C490.629 56.2056 491.692 54.3341 492.727 50.9238C495.01 43.3936 495.737 39.4804 499.25 31.7392C501.036 27.8028 501.559 24.9466 506.275 22.3152C510.137 20.1607 513.337 18.8556 518.319 19.2861C522.058 19.6091 524.352 20.4214 526.85 22.3152C530.542 25.1155 529.359 28.0007 529.359 31.7392Z" fill="white"/>
<path d="M23 102.796V9H27.4737V102.796C27.4737 102.796 34.0493 125.054 42.6842 136.741C49.5793 146.073 54.3806 151.026 64.1579 157.287C71.9036 162.246 77.4143 166.114 84.7368 168.006C88.0571 168.864 92.4606 167.785 96.3684 168.899C102.545 170.661 108 180.512 108 180.512V302H104.421V182.299C104.421 182.299 100.842 175.152 96.3684 173.366C91.8947 171.579 87.6967 173.32 83.8421 172.473C77.0877 170.987 71.4372 166.915 64.1579 162.646C52.2195 155.646 46.2698 149.767 38.2105 138.527C29.3704 126.199 23 102.796 23 102.796Z" fill="url(#paint0_linear_176_367)"/>
<path d="M16.7743 70.6052C18.5656 73.2899 20.042 73.3415 22.1482 75.0799C34.2086 85.0338 60.3139 104.613 60.3139 104.613C60.3139 104.613 63.1667 106.109 64.2437 108.192C65.3672 110.366 65.1393 114.457 65.1393 114.457V158.309C65.1393 158.309 65.8826 165.677 62.4524 166.363C57.9742 167.258 56.7045 165.065 53.0481 164.125C48.6507 162.996 46.3538 161.586 41.8525 160.993C37.6912 160.445 34.8055 159.015 31.1047 160.993C28.2613 162.513 27.3109 164.449 25.7308 167.258C23.8737 170.559 24.0932 172.937 23.0438 176.576L14.0874 207.635L10.5048 220.059C10.5048 220.059 9.36906 223.665 10.5048 225.428C12.1248 227.944 14.6977 227.764 17.6707 228.113C20.6438 228.463 22.9048 228.205 25.7308 227.218C28.5325 226.24 29.6319 224.423 31.1047 221.849C34.6881 215.584 36.4794 203.95 36.4794 203.95C36.4794 203.95 38.2707 191.421 40.9568 185.156C41.6456 183.55 42.8672 182.983 44.5394 182.472C47.2383 181.646 49.8903 183.475 52.6011 184.261C55.3118 185.048 58.8706 186.051 58.8706 186.051C58.8706 186.051 68.1344 186.897 72.3045 190.526C73.0506 191.175 74.0958 191.327 74.0958 192.316C74.0958 193.304 73.1023 193.521 72.3045 194.106C69.2019 196.379 66.7079 192.231 63.3488 194.106C59.8221 196.074 59.2984 199.56 57.2775 203.055L19.501 268.385C18.0864 270.831 16.6509 271.931 15.8794 274.649C15.0206 277.676 14.4497 279.901 15.8786 282.704C17.1187 285.136 18.7457 286.094 21.2525 287.178C24.7832 288.706 25.836 287.927 29.3142 286.284C33.9254 284.105 37.668 275.895 37.668 275.895L86.6357 191.709C86.6357 191.709 91.0968 186.543 92.0088 182.472C92.62 179.743 92.1285 175.312 92.1285 175.312C92.1285 175.312 92.6873 133.928 92.0088 133.25C91.1132 132.355 87.6729 130.604 88.4262 128.776C89.1053 127.128 91.4214 127.85 92.9045 128.776C100.07 133.25 107.235 139.515 112.609 143.99C113.415 144.661 113.022 145.711 112.609 146.674C109.922 152.939 103.652 158.308 98.2784 165.468C96.2631 168.153 95.3571 171.381 97.3827 174.417C99.174 177.102 99.174 177.102 101.861 178.892C104.48 180.637 107.503 181.8 109.922 179.787C120.67 170.837 134.104 146.674 134.104 146.674C134.104 146.674 136.12 141.036 134.104 138.62C129.626 133.25 126.365 132.62 121.406 128.776L40.9568 66.4083C34.2932 61.2424 34.6873 60.7611 30.209 58.0762C27.5097 56.4578 25.0416 56.8372 22.1482 58.0762C19.4202 59.2444 17.8766 60.6924 16.7743 63.4458C15.7351 66.0418 15.2221 68.2789 16.7743 70.6052Z" fill="url(#paint1_linear_176_367)"/>
<path d="M92 91.5L94.85 95.58C94.85 95.58 97.6978 93.6399 99.2 92.3913C100.293 91.4828 101.75 89.7826 101.75 89.7826L103.875 86.7391L106 83.6957L95.8 75C95.8 75 94.1 76.8494 94.1 77.6087C94.1 78.368 94.95 79.3478 94.95 79.3478C94.95 79.3478 94.4756 79.9292 94.1 80.2174C93.2602 80.8617 92.5458 80.7474 91.55 81.087C90.5542 81.4265 88.5 82 88.5 82L90 85L99.2 84.5652C99.2 84.5652 99.3091 85.6344 99.2 86.3043C98.7306 89.1858 92 91.5 92 91.5Z" fill="url(#paint2_linear_176_367)"/>
<path d="M76.4206 73.0209C77.8604 69.2866 83.4438 64 83.4438 64L86.955 67.6084C86.955 67.6084 83.4486 70.9559 82.5653 73.0209C81.1858 76.246 82.5653 82.0418 82.5653 82.0418H88.71L91.3434 84.7481L88.71 85.6502L84.3209 86.5523C84.3209 86.5523 84.1546 87.6729 84.3209 88.3564C84.6721 89.7998 85.6647 90.3491 86.9369 91.053L86.9544 91.0627C89.0672 92.2318 93.099 91.0627 93.099 91.0627L94.8546 95.5732C94.8546 95.5732 88.852 96.5336 85.1987 95.5732C84.1485 95.2971 82.5653 94.6711 82.5653 94.6711C82.5653 94.6711 77.8604 90.2865 76.4206 86.5523C74.5265 81.6395 74.5265 77.9336 76.4206 73.0209Z" fill="url(#paint3_linear_176_367)"/>
<path d="M79.1684 62.2051C79.1684 62.2051 78.7895 60.5421 79.1684 59.5896C79.8725 57.8192 81.8878 58.2592 83.6338 57.4166L84.8782 56.811C84.8782 56.811 86.7991 55.7184 88.1254 55.2308C92.7066 53.5465 96.0513 53.6336 100.665 55.2308C106.03 57.0879 109.141 59.739 111.414 64.8205C113.648 69.815 113.406 73.6788 111.414 78.7692C110.857 80.1921 110.77 81.2217 109.622 82.2564C108.158 83.5771 104.71 83.6362 104.71 83.6362L79.1684 62.2051Z" fill="url(#paint4_linear_176_367)"/>
<path d="M153 335.657L155.098 283.988H162.59L159.593 322.21H160.193L171.581 283.988H179.074L161.591 335.657H153Z" fill="white"/>
<path d="M251.94 335.657L261.391 283.988H267.754L264.292 304.122L274.397 283.988H281.04L268.783 308.627L271.777 335.657H265.134L262.607 313.592L258.397 335.657H251.94Z" fill="white"/>
<path d="M248.631 283.988L238.36 335.657H245.55L255.82 283.988H248.631Z" fill="white"/>
<path d="M304.891 283.988L294.62 335.657H301.81L306.492 312.102H314.02L309.17 335.657H315.96L325.66 283.988H318.87L314.99 306.132H307.678L312.08 283.988H304.891Z" fill="white"/>
<path d="M229.231 283.988L218.96 335.657H226.149H233.51L236.42 329.198H227.69L236.42 283.988H229.231Z" fill="white"/>
<path d="M359.211 283.988L348.94 335.657H356.13H363.49L366.4 329.198H357.67L366.4 283.988H359.211Z" fill="white"/>
<path d="M182.671 283.988L172.4 335.657H179.59H188.577L189.86 329.596H180.794L184.04 312.59H191.8L192.77 306.132H185.01L188.577 290.446H195.68L197.62 283.988H189.86H182.671Z" fill="white"/>
<path d="M285.49 283.988L275.22 335.657H282.409H291.396L292.68 329.596H283.614L286.86 312.59H294.62L295.59 306.132H287.83L291.396 290.446H298.5L300.44 283.988H292.68H285.49Z" fill="white"/>
<path d="M203.691 329.254H205.309C205.309 329.254 206.308 328.129 206.831 327.331C207.89 325.717 208.107 324.614 208.733 322.807C209.512 320.56 210.256 316.925 210.256 316.925C210.955 314.006 211.312 312.361 211.873 309.415C212.376 306.773 213.014 302.628 213.014 302.628C213.014 302.628 213.467 299.931 213.68 298.194C213.863 296.713 214.049 295.884 214.061 294.393C214.068 293.544 213.966 292.221 213.966 292.221C213.966 292.221 213.49 290.232 212.444 289.87C211.564 289.713 209.553 289.87 208.258 289.87H207.877L200.076 329.322L203.691 329.254ZM191.8 335.657L202.074 283.988L207.55 283.988C209.331 283.988 215.298 283.987 215.488 283.988C215.964 283.99 217.449 284.036 219.008 286.522C219.461 287.245 219.769 290.232 219.769 290.232L219.864 295.209C219.864 295.209 219.733 299.132 219.484 301.634C219.165 304.833 218.767 306.603 218.247 309.778C217.759 312.751 217.503 314.422 216.915 317.379C216.471 319.613 216.319 320.89 215.678 323.08C215.205 324.695 214.999 325.634 214.251 327.152C213.856 327.954 213.576 328.376 213.11 329.143C212.314 330.449 211.909 331.218 210.922 332.4C209.77 333.778 207.877 335.567 207.55 335.567C207.224 335.567 191.8 335.657 191.8 335.657Z" fill="white"/>
<path d="M333.664 329.254C334.296 329.258 335.281 329.254 335.281 329.254C335.281 329.254 336.515 327.77 336.803 327.331C337.863 325.717 338.08 324.614 338.706 322.807C339.485 320.56 340.228 316.925 340.228 316.925C340.927 314.006 341.285 312.36 341.845 309.414C342.348 306.773 342.987 302.628 342.987 302.628C342.987 302.628 343.439 299.931 343.653 298.194C343.835 296.713 344.021 295.884 344.034 294.393C344.041 293.544 343.938 292.221 343.938 292.221C343.938 292.221 343.33 290.508 342.416 289.87C340.979 288.866 339.284 288.862 337.85 289.87C336.919 290.524 336.512 291.373 336.33 292.292C336.33 292.292 333.063 307.254 331.48 316.925C331.113 319.167 330.583 322.671 330.583 322.671L329.716 327.152C329.716 327.152 329.84 328.633 330.51 329.198C330.805 329.447 332.432 329.247 333.664 329.254ZM326.882 334.227C325.368 332.661 325.66 329.198 325.66 329.198C325.66 329.198 325.588 326.385 325.653 324.584C325.89 318.013 330.706 295.947 331.472 293.214C332.238 290.481 334.382 286.522 334.382 286.522C334.382 286.522 335.743 283.988 337.523 283.988C339.303 283.988 345.461 283.988 345.461 283.988C345.936 283.99 347.422 284.036 348.98 286.522C349.434 287.244 349.742 290.232 349.742 290.232L349.837 295.209C349.837 295.209 349.705 299.132 349.456 301.633C349.137 304.833 348.74 306.602 348.219 309.778C347.732 312.751 347.476 314.422 346.888 317.379C346.443 319.612 346.292 320.89 345.651 323.08C345.178 324.694 344.971 325.634 344.224 327.152C343.829 327.954 343.549 328.376 343.082 329.142C342.287 330.449 341.882 331.218 340.894 332.4C339.743 333.778 337.85 335.567 337.523 335.567C337.523 335.567 329.718 337.163 326.882 334.227Z" fill="white"/>
<path d="M380.231 329.254H381.849C381.849 329.254 382.848 328.129 383.371 327.331C384.43 325.717 384.647 324.614 385.274 322.807C386.052 320.56 386.796 316.925 386.796 316.925C387.495 314.006 387.852 312.361 388.413 309.415C388.916 306.773 389.555 302.628 389.555 302.628C389.555 302.628 390.007 299.931 390.22 298.194C390.403 296.713 390.589 295.884 390.601 294.393C390.608 293.544 390.506 292.221 390.506 292.221C390.506 292.221 390.03 290.232 388.984 289.87C388.104 289.713 386.093 289.87 384.798 289.87H384.417L376.616 329.322L380.231 329.254ZM368.34 335.657L378.614 283.988L384.091 283.988C385.871 283.988 391.838 283.987 392.028 283.988C392.504 283.99 393.989 284.036 395.548 286.522C396.001 287.245 396.309 290.232 396.309 290.232L396.404 295.209C396.404 295.209 396.273 299.132 396.024 301.634C395.705 304.833 395.307 306.603 394.787 309.778C394.299 312.751 394.043 314.422 393.455 317.379C393.011 319.613 392.859 320.89 392.218 323.08C391.746 324.695 391.539 325.634 390.791 327.152C390.396 327.954 390.116 328.376 389.65 329.143C388.854 330.449 388.449 331.218 387.462 332.4C386.31 333.778 384.417 335.567 384.091 335.567C383.764 335.567 368.34 335.657 368.34 335.657Z" fill="white"/>
<path d="M483.978 336L486.089 283.988H493.632L490.615 322.464H491.218L502.682 283.988H510.225L492.626 336H483.978Z" fill="white"/>
<path d="M426.059 292.454C426.059 294.429 425.593 297.571 425.593 297.571H432.202C432.202 297.571 432.708 294.459 432.667 292.454C432.642 291.222 432.698 290.506 432.388 289.312C431.985 287.76 431.754 286.706 430.526 285.631C429.342 284.593 428.282 284.483 426.71 284.194C425.103 283.899 424.136 283.939 422.522 284.194C421.013 284.433 420.126 284.63 418.798 285.361C417.169 286.259 416.397 287.089 415.355 288.593C414.191 290.272 414.085 291.505 413.493 293.441C412.934 295.268 412.668 296.315 412.376 298.199C412.052 300.284 411.704 301.497 412.004 303.586C412.206 304.993 412.374 305.814 413.028 307.087C413.897 308.78 414.926 309.406 416.285 310.767C417.785 312.269 419.078 312.653 420.381 314.358C421.206 315.439 421.438 316.257 421.591 317.59C421.707 318.603 421.525 319.181 421.405 320.194C421.206 321.86 421.023 322.794 420.567 324.413C420.111 326.029 420.102 327.196 419.078 328.453C418.604 329.034 418.145 329.256 417.402 329.44C416.769 329.598 416.324 329.699 415.727 329.44C414.936 329.098 414.639 328.473 414.517 327.645C414.331 326.388 414.425 325.508 414.517 324.144C414.631 322.447 415.168 319.835 415.168 319.835H408.467C408.467 319.835 408.131 322.018 408.001 323.426C407.792 325.697 407.815 329.261 407.815 329.261C407.815 329.261 408.092 332.871 409.677 334.288C410.811 335.303 411.793 335.512 413.307 335.814C414.802 336.113 415.702 336.005 417.216 335.814C418.554 335.646 419.335 335.536 420.567 335.006C421.949 334.413 422.681 333.902 423.732 332.852C425.2 331.384 425.55 330.166 426.338 328.273C427.231 326.127 427.373 324.799 427.827 322.528C428.209 320.615 428.555 319.539 428.572 317.59C428.584 316.111 428.602 315.247 428.199 313.82C427.845 312.563 427.523 311.87 426.803 310.767C425.776 309.194 424.865 308.518 423.359 307.356C421.032 305.561 419.15 304.416 418.798 301.611C418.716 300.949 418.744 300.569 418.798 299.905C418.875 298.98 419.072 298.48 419.264 297.571C419.687 295.562 419.822 294.518 420.474 292.454C420.805 291.404 420.902 290.642 421.777 289.94C422.493 289.365 423.087 289.017 424.011 289.132C424.704 289.218 425.13 289.435 425.593 289.94C426.278 290.687 426.059 291.456 426.059 292.454Z" fill="white"/>
<path d="M513.846 283.988L503.507 336H510.744L521.083 283.988H513.846Z" fill="white"/>
<path d="M439.635 283.988L429.296 336H436.533H445.58L446.872 329.9H437.746L441.013 312.78H448.825L449.801 306.279H441.99L445.58 290.489H452.731L454.684 283.988H446.872H439.635Z" fill="white"/>
<path d="M550.951 283.988L540.612 336H547.85H556.896L558.188 329.9H549.062L552.33 312.78H560.141L561.118 306.279H553.306L556.896 290.489H564.047L566 283.988H558.188H550.951Z" fill="white"/>
<path d="M527.919 329.499C526.866 329.889 526.673 329.77 525.966 329.499C524.701 329.013 524.435 326.511 524.435 326.511L525.966 316.496L530.848 291.418C531.031 290.494 531.544 289.16 532.801 288.632C534.239 288.027 534.922 287.862 535.731 288.632C536.707 289.561 536.391 297.36 536.391 297.36H542.566C542.566 297.36 543.022 288.431 542.566 287.703C540.997 285.201 539.768 283.99 539.289 283.988C539.289 283.988 533.228 283.988 531.436 283.988C529.644 283.988 528.895 285.846 528.895 285.846C528.895 285.846 525.787 289.596 525.016 292.348C524.245 295.099 519.397 317.311 519.158 323.926C519.093 325.739 519.165 328.57 519.165 328.57C519.165 328.57 518.871 332.057 520.395 333.633C523.25 336.589 531.107 334.982 531.107 334.982C531.436 334.982 533.342 333.181 534.501 331.794C534.923 331.03 537.742 327.401 537.683 326.511C537.515 323.926 537.683 320.211 537.683 320.211H531.825C531.825 320.211 531.449 325.067 530.383 326.692C530.093 327.134 529.318 328.98 527.919 329.499Z" fill="white"/>
<path d="M450.778 336L459.566 283.988H464.475C468.094 283.988 472.868 284.457 475.19 285.845C477.511 287.217 477.98 289.014 479.095 291.418C480.211 293.822 477.143 302.564 477.143 302.564C477.143 302.564 474.352 307.624 473.237 309.994C472.121 312.364 471.767 311.137 473.997 312.635C470.519 311.799 470.966 311.852 467.378 311.852C465.349 311.852 462.183 311.852 462.183 311.852L463.238 306.279C465.71 306.279 468.094 306.407 468.354 306.279C470.626 305.16 470.555 303.038 471.284 300.706C472.479 296.882 472.807 291.336 471.284 290.489C469.761 289.626 468.904 289.561 466.402 289.561L457.613 336H450.778ZM473.997 312.635C473.319 321.76 472.26 336 472.26 336L465.425 336C465.425 336 466.615 321.282 467.378 311.852C468.354 310.923 469.331 309.065 469.331 309.065C469.331 309.065 472.74 312.332 473.997 312.635Z" fill="white"/>
<path d="M153 274.625L162.513 222.613H168.918L165.433 242.881L175.606 222.613H182.294L169.954 247.416L172.969 274.625H166.281L163.738 252.413L159.499 274.625H153Z" fill="white"/>
<path d="M235.69 231.079C235.69 233.054 235.225 236.196 235.225 236.196H241.834C241.834 236.196 242.34 233.084 242.299 231.079C242.274 229.847 242.33 229.131 242.02 227.937C241.617 226.385 241.386 225.331 240.158 224.256C238.974 223.218 237.914 223.108 236.342 222.819C234.735 222.524 233.768 222.564 232.153 222.819C230.645 223.058 229.758 223.255 228.43 223.986C226.801 224.884 226.029 225.714 224.986 227.218C223.823 228.897 223.717 230.13 223.125 232.066C222.566 233.893 222.3 234.94 222.008 236.824C221.684 238.909 221.335 240.122 221.636 242.211C221.838 243.618 222.006 244.439 222.659 245.712C223.529 247.405 224.558 248.031 225.917 249.392C227.417 250.894 228.71 251.278 230.013 252.983C230.838 254.064 231.07 254.882 231.223 256.215C231.339 257.228 231.157 257.806 231.037 258.819C230.838 260.485 230.655 261.419 230.199 263.038C229.743 264.654 229.733 265.821 228.71 267.078C228.236 267.659 227.777 267.881 227.034 268.065C226.401 268.223 225.956 268.324 225.359 268.065C224.568 267.723 224.271 267.098 224.149 266.27C223.963 265.013 224.057 264.133 224.149 262.769C224.262 261.072 224.8 258.46 224.8 258.46H218.099C218.099 258.46 217.763 260.643 217.633 262.051C217.424 264.322 217.447 267.886 217.447 267.886C217.447 267.886 217.724 271.496 219.309 272.913C220.442 273.928 221.424 274.137 222.939 274.439C224.434 274.738 225.334 274.63 226.848 274.439C228.185 274.271 228.967 274.161 230.199 273.631C231.581 273.038 232.313 272.527 233.363 271.477C234.832 270.009 235.182 268.791 235.97 266.898C236.863 264.752 237.005 263.424 237.459 261.153C237.841 259.24 238.187 258.164 238.204 256.215C238.216 254.736 238.234 253.872 237.831 252.445C237.477 251.188 237.155 250.495 236.435 249.392C235.408 247.819 234.497 247.143 232.991 245.981C230.664 244.186 228.781 243.041 228.43 240.236C228.348 239.574 228.376 239.194 228.43 238.53C228.507 237.605 228.704 237.105 228.896 236.196C229.319 234.187 229.454 233.143 230.106 231.079C230.437 230.029 230.534 229.267 231.409 228.565C232.125 227.99 232.719 227.642 233.643 227.757C234.336 227.843 234.762 228.06 235.225 228.565C235.91 229.312 235.69 230.081 235.69 231.079Z" fill="white"/>
<path d="M331.383 231.079C331.383 233.054 330.917 236.196 330.917 236.196H337.526C337.526 236.196 338.032 233.084 337.991 231.079C337.966 229.847 338.023 229.131 337.712 227.937C337.309 226.385 337.078 225.331 335.851 224.256C334.667 223.218 333.606 223.108 332.034 222.819C330.428 222.524 329.46 222.564 327.846 222.819C326.337 223.058 325.45 223.255 324.123 223.986C322.494 224.884 321.722 225.714 320.679 227.218C319.516 228.897 319.409 230.13 318.817 232.066C318.258 233.893 317.993 234.94 317.7 236.824C317.377 238.909 317.028 240.122 317.328 242.211C317.53 243.618 317.698 244.439 318.352 245.712C319.221 247.405 320.25 248.031 321.61 249.392C323.109 250.894 324.402 251.278 325.705 252.983C326.53 254.064 326.762 254.882 326.915 256.215C327.031 257.228 326.849 257.806 326.729 258.819C326.53 260.485 326.348 261.419 325.891 263.038C325.436 264.654 325.426 265.821 324.402 267.078C323.928 267.659 323.469 267.881 322.727 268.065C322.093 268.223 321.648 268.324 321.051 268.065C320.26 267.723 319.964 267.098 319.841 266.27C319.655 265.013 319.75 264.133 319.841 262.769C319.955 261.072 320.493 258.46 320.493 258.46H313.791C313.791 258.46 313.455 260.643 313.326 262.051C313.117 264.322 313.139 267.886 313.139 267.886C313.139 267.886 313.416 271.496 315.001 272.913C316.135 273.928 317.117 274.137 318.631 274.439C320.126 274.738 321.027 274.63 322.54 274.439C323.878 274.271 324.659 274.161 325.891 273.631C327.273 273.038 328.006 272.527 329.056 271.477C330.524 270.009 330.874 268.791 331.662 266.898C332.555 264.752 332.697 263.424 333.151 261.153C333.534 259.24 333.879 258.164 333.896 256.215C333.909 254.736 333.926 253.872 333.524 252.445C333.169 251.188 332.847 250.495 332.127 249.392C331.1 247.819 330.189 247.143 328.684 245.981C326.357 244.186 324.474 243.041 324.123 240.236C324.04 239.574 324.068 239.194 324.123 238.53C324.199 237.605 324.396 237.105 324.588 236.196C325.012 234.187 325.147 233.143 325.798 231.079C326.129 230.029 326.226 229.267 327.101 228.565C327.818 227.99 328.411 227.642 329.335 227.757C330.029 227.843 330.454 228.06 330.917 228.565C331.602 229.312 331.383 230.081 331.383 231.079Z" fill="white"/>
<path d="M214.114 222.613L203.775 274.625H211.013L221.352 222.613H214.114Z" fill="white"/>
<path d="M292.231 222.613L281.892 274.625H289.129L295.141 244.382L298.491 274.625H305.326L315.091 222.613H308.256L301.421 254.192L299.468 222.613H292.231Z" fill="white"/>
<path d="M364.488 222.613L354.149 274.625H361.387L367.398 244.382L370.749 274.625H377.584L387.349 222.613H380.514L373.678 254.192L371.726 222.613H364.488Z" fill="white"/>
<path d="M272.701 222.613L262.362 274.625H269.6H278.646L279.938 268.525H270.812L274.08 251.405H281.891L282.868 244.904H275.056L278.646 229.114H285.797L287.75 222.613H279.938H272.701Z" fill="white"/>
<path d="M344.959 222.613L334.62 274.625H341.857H350.904L352.196 268.525H343.07L346.338 251.405H354.149L355.126 244.904H347.314L350.904 229.114H358.055L360.008 222.613H352.196H344.959Z" fill="white"/>
<path d="M262.362 222.613H255.125H247.715L246.739 229.66H253.724L244.786 274.625H252.023L260.961 229.66H266.624L268.221 222.613H262.362Z" fill="white"/>
<path d="M178.388 274.625L187.176 222.613H192.085C195.703 222.613 200.477 223.082 202.799 224.47C205.121 225.842 205.589 227.639 206.705 230.043C207.82 232.447 204.752 241.189 204.752 241.189C204.752 241.189 201.962 246.249 200.846 248.619C199.73 250.989 199.377 249.762 201.607 251.26C198.128 250.424 198.576 250.477 194.987 250.477C192.959 250.477 189.793 250.477 189.793 250.477L190.847 244.904C193.32 244.904 195.703 245.032 195.964 244.904C198.235 243.785 198.164 241.663 198.893 239.331C200.089 235.507 200.416 229.961 198.893 229.114C197.37 228.251 196.514 228.186 194.011 228.186L185.223 274.625H178.388ZM201.607 251.26C200.928 260.385 199.87 274.625 199.87 274.625L193.034 274.625C193.034 274.625 194.225 259.907 194.987 250.477C195.964 249.548 196.94 247.69 196.94 247.69C196.94 247.69 200.35 250.957 201.607 251.26Z" fill="white"/>
<defs>
<linearGradient id="paint0_linear_176_367" x1="26.389" y1="27.3921" x2="130.046" y2="60.8423" gradientUnits="userSpaceOnUse">
<stop stop-color="#F29608"/>
<stop offset="1" stop-color="#F4E105"/>
</linearGradient>
<linearGradient id="paint1_linear_176_367" x1="14.9838" y1="71.5002" x2="138.531" y2="145.867" gradientUnits="userSpaceOnUse">
<stop stop-color="#F29608"/>
<stop offset="1" stop-color="#F4E105"/>
</linearGradient>
<linearGradient id="paint2_linear_176_367" x1="89.6439" y1="77.0158" x2="100.694" y2="87.8872" gradientUnits="userSpaceOnUse">
<stop stop-color="#F4D705"/>
<stop offset="1" stop-color="#F4E105"/>
</linearGradient>
<linearGradient id="paint3_linear_176_367" x1="76.0366" y1="66.0087" x2="95.3054" y2="83.4238" gradientUnits="userSpaceOnUse">
<stop stop-color="#F29608"/>
<stop offset="1" stop-color="#F4E105"/>
</linearGradient>
<linearGradient id="paint4_linear_176_367" x1="80.3556" y1="55.8831" x2="98.036" y2="78.1726" gradientUnits="userSpaceOnUse">
<stop stop-color="#F29608"/>
<stop offset="1" stop-color="#F4E105"/>
</linearGradient>
</defs>
</svg>
