<svg width="400" height="281" viewBox="0 0 400 281" fill="none" xmlns="http://www.w3.org/2000/svg">
<path d="M154.5 281L165.04 0H202.684L187.626 207.87H190.638L247.856 0H285.5L197.665 281H154.5Z" fill="white"/>
<path d="M0 281L50.5 0H84.5L66 109.5L120 0H155.5L90 134L106 281H70.5L57 161L34.5 281H0Z" fill="white"/>
<path d="M363.859 45.737C363.859 56.4072 361.35 73.3826 361.35 73.3826H396.978C396.978 73.3826 399.709 56.5726 399.487 45.737C399.351 39.0848 399.655 35.2158 397.982 28.7617C395.809 20.3804 394.562 14.6866 387.946 8.87636C381.562 3.27079 375.844 2.6752 367.371 1.11622C358.708 -0.477792 353.492 -0.262462 344.79 1.11622C336.656 2.4048 331.874 3.4685 324.718 7.42133C315.934 12.273 311.773 16.7526 306.151 24.8817C299.879 33.9494 299.306 40.6105 296.114 51.0721C293.102 60.9445 291.669 66.5983 290.093 76.7776C288.348 88.0418 286.467 94.5964 288.085 105.878C289.176 113.481 290.082 117.915 293.605 124.794C298.292 133.944 303.84 137.325 311.169 144.679C319.253 152.791 326.223 154.864 333.248 164.079C337.698 169.916 338.948 174.334 339.772 181.54C340.397 187.012 339.418 190.135 338.768 195.605C337.699 204.61 336.712 209.654 334.252 218.4C331.796 227.129 331.743 233.436 326.223 240.226C323.669 243.367 321.194 244.564 317.19 245.561C313.774 246.411 311.377 246.955 308.158 245.561C303.892 243.712 302.295 240.333 301.634 235.861C300.631 229.07 301.141 224.317 301.634 216.945C302.247 207.777 305.147 193.665 305.147 193.665H269.017C269.017 193.665 267.206 205.46 266.508 213.065C265.381 225.334 265.504 244.591 265.504 244.591C265.504 244.591 266.996 264.092 275.54 271.751C281.653 277.231 286.947 278.362 295.111 279.996C303.17 281.609 308.026 281.028 316.187 279.996C323.397 279.085 327.609 278.492 334.252 275.631C341.702 272.423 345.651 269.664 351.313 263.991C359.23 256.06 361.118 249.483 365.364 239.256C370.179 227.659 370.946 220.484 373.393 208.215C375.454 197.878 377.317 192.066 377.408 181.54L377.412 180.992C377.479 173.332 377.519 168.703 375.4 161.169C373.49 154.377 371.754 150.635 367.873 144.679C362.334 136.179 357.422 132.524 349.306 126.249C336.761 116.548 326.61 110.365 324.718 95.208C324.271 91.6351 324.422 89.5802 324.718 85.9928C325.129 80.9937 326.192 78.2968 327.227 73.3826C329.51 62.5313 330.237 56.8922 333.75 45.737C335.536 40.0645 336.059 35.9487 340.775 32.1568C344.637 29.0521 347.837 27.1714 352.819 27.7917C356.558 28.2572 358.852 29.4278 361.35 32.1568C365.042 36.1922 363.859 40.3497 363.859 45.737Z" fill="white"/>
</svg>
