<svg width="145" height="567" viewBox="0 0 145 567" fill="none" xmlns="http://www.w3.org/2000/svg">
<path d="M23 237.296V143.5V0H27.4737V143.5V237.296C27.4737 237.296 34.0493 259.554 42.6842 271.241C49.5793 280.573 54.3806 285.526 64.1579 291.787C71.9036 296.746 77.4143 300.614 84.7368 302.506C88.0571 303.364 92.4606 302.285 96.3684 303.399C102.545 305.161 108 315.012 108 315.012V436.5V566.5H104.421V436.5V316.799C104.421 316.799 100.842 309.652 96.3684 307.866C91.8947 306.079 87.6967 307.82 83.8421 306.973C77.0877 305.487 71.4372 301.415 64.1579 297.146C52.2195 290.146 46.2698 284.267 38.2105 273.027C29.3704 260.699 23 237.296 23 237.296Z" fill="url(#paint0_linear_629_17)"/>
<path d="M16.7743 205.105C18.5656 207.79 20.042 207.842 22.1482 209.58C34.2086 219.534 60.3139 239.113 60.3139 239.113C60.3139 239.113 63.1667 240.609 64.2437 242.692C65.3672 244.866 65.1393 248.957 65.1393 248.957V292.809C65.1393 292.809 65.8826 300.177 62.4524 300.863C57.9742 301.758 56.7045 299.565 53.0481 298.625C48.6507 297.496 46.3538 296.086 41.8525 295.493C37.6912 294.945 34.8055 293.515 31.1047 295.493C28.2613 297.013 27.3109 298.949 25.7308 301.758C23.8737 305.059 24.0932 307.437 23.0438 311.076L14.0874 342.135L10.5048 354.559C10.5048 354.559 9.36906 358.165 10.5048 359.928C12.1248 362.444 14.6977 362.264 17.6707 362.613C20.6438 362.963 22.9048 362.705 25.7308 361.718C28.5325 360.74 29.6319 358.923 31.1047 356.349C34.6881 350.084 36.4794 338.45 36.4794 338.45C36.4794 338.45 38.2707 325.921 40.9568 319.656C41.6456 318.05 42.8672 317.483 44.5394 316.972C47.2383 316.146 49.8903 317.975 52.6011 318.761C55.3118 319.548 58.8706 320.551 58.8706 320.551C58.8706 320.551 68.1344 321.397 72.3045 325.026C73.0506 325.675 74.0958 325.827 74.0958 326.816C74.0958 327.804 73.1023 328.021 72.3045 328.606C69.2019 330.879 66.7079 326.731 63.3488 328.606C59.8221 330.574 59.2984 334.06 57.2775 337.555L19.501 402.885C18.0864 405.331 16.6509 406.431 15.8794 409.149C15.0206 412.176 14.4497 414.401 15.8786 417.204C17.1187 419.636 18.7457 420.594 21.2525 421.678C24.7832 423.206 25.836 422.427 29.3142 420.784C33.9254 418.605 37.668 410.395 37.668 410.395L86.6357 326.209C86.6357 326.209 91.0968 321.043 92.0088 316.972C92.62 314.243 92.1285 309.812 92.1285 309.812C92.1285 309.812 92.6873 268.428 92.0088 267.75C91.1132 266.855 87.6729 265.104 88.4262 263.276C89.1053 261.628 91.4214 262.35 92.9045 263.276C100.07 267.75 107.235 274.015 112.609 278.49C113.415 279.161 113.022 280.211 112.609 281.174C109.922 287.439 103.652 292.808 98.2784 299.968C96.2631 302.653 95.3571 305.881 97.3827 308.917C99.174 311.602 99.174 311.602 101.861 313.392C104.48 315.137 107.503 316.3 109.922 314.287C120.67 305.337 134.104 281.174 134.104 281.174C134.104 281.174 136.12 275.536 134.104 273.12C129.626 267.75 126.365 267.12 121.406 263.276L40.9568 200.908C34.2932 195.742 34.6873 195.261 30.209 192.576C27.5097 190.958 25.0416 191.337 22.1482 192.576C19.4202 193.744 17.8766 195.192 16.7743 197.946C15.7351 200.542 15.2221 202.779 16.7743 205.105Z" fill="url(#paint1_linear_629_17)"/>
<path d="M92 226L94.85 230.08C94.85 230.08 97.6978 228.14 99.2 226.891C100.293 225.983 101.75 224.283 101.75 224.283L103.875 221.239L106 218.196L95.8 209.5C95.8 209.5 94.1 211.349 94.1 212.109C94.1 212.868 94.95 213.848 94.95 213.848C94.95 213.848 94.4756 214.429 94.1 214.717C93.2602 215.362 92.5458 215.247 91.55 215.587C90.5542 215.927 88.5 216.5 88.5 216.5L90 219.5L99.2 219.065C99.2 219.065 99.3091 220.134 99.2 220.804C98.7306 223.686 92 226 92 226Z" fill="url(#paint2_linear_629_17)"/>
<path d="M76.4206 207.521C77.8604 203.787 83.4438 198.5 83.4438 198.5L86.955 202.108C86.955 202.108 83.4486 205.456 82.5653 207.521C81.1858 210.746 82.5653 216.542 82.5653 216.542H88.71L91.3434 219.248L88.71 220.15L84.3209 221.052C84.3209 221.052 84.1546 222.173 84.3209 222.856C84.6721 224.3 85.6647 224.849 86.9369 225.553L86.9544 225.563C89.0672 226.732 93.099 225.563 93.099 225.563L94.8546 230.073C94.8546 230.073 88.852 231.034 85.1987 230.073C84.1485 229.797 82.5653 229.171 82.5653 229.171C82.5653 229.171 77.8604 224.787 76.4206 221.052C74.5265 216.14 74.5265 212.434 76.4206 207.521Z" fill="url(#paint3_linear_629_17)"/>
<path d="M79.1684 196.705C79.1684 196.705 78.7895 195.042 79.1684 194.09C79.8725 192.319 81.8878 192.759 83.6338 191.917L84.8782 191.311C84.8782 191.311 86.7991 190.218 88.1254 189.731C92.7066 188.046 96.0513 188.134 100.665 189.731C106.03 191.588 109.141 194.239 111.414 199.321C113.648 204.315 113.406 208.179 111.414 213.269C110.857 214.692 110.77 215.722 109.622 216.756C108.158 218.077 104.71 218.136 104.71 218.136L79.1684 196.705Z" fill="url(#paint4_linear_629_17)"/>
<defs>
<linearGradient id="paint0_linear_629_17" x1="26.389" y1="35.5601" x2="137.738" y2="54.1448" gradientUnits="userSpaceOnUse">
<stop stop-color="#F29608"/>
<stop offset="1" stop-color="#F4E105"/>
</linearGradient>
<linearGradient id="paint1_linear_629_17" x1="14.9838" y1="206" x2="138.531" y2="280.367" gradientUnits="userSpaceOnUse">
<stop stop-color="#F29608"/>
<stop offset="1" stop-color="#F4E105"/>
</linearGradient>
<linearGradient id="paint2_linear_629_17" x1="89.6439" y1="211.516" x2="100.694" y2="222.387" gradientUnits="userSpaceOnUse">
<stop stop-color="#F4D705"/>
<stop offset="1" stop-color="#F4E105"/>
</linearGradient>
<linearGradient id="paint3_linear_629_17" x1="76.0366" y1="200.509" x2="95.3054" y2="217.924" gradientUnits="userSpaceOnUse">
<stop stop-color="#F29608"/>
<stop offset="1" stop-color="#F4E105"/>
</linearGradient>
<linearGradient id="paint4_linear_629_17" x1="80.3556" y1="190.383" x2="98.036" y2="212.673" gradientUnits="userSpaceOnUse">
<stop stop-color="#F29608"/>
<stop offset="1" stop-color="#F4E105"/>
</linearGradient>
</defs>
</svg>
